<svg width="44" height="38" viewBox="0 0 44 38" fill="none" xmlns="http://www.w3.org/2000/svg">
<rect x="2.31592" y="2.3158" width="39.3684" height="25.4737" rx="3.47366" fill="#FEF1CF"/>
<path d="M37.125 0C40.922 0 44 3.07204 44 6.8616V23.3294C44 27.119 40.922 30.191 37.125 30.191H27.5V34.308H31.625C32.3844 34.308 33 34.9224 33 35.6803C33 36.4382 32.3844 37.0526 31.625 37.0526H12.375C11.6156 37.0526 11 36.4382 11 35.6803C11 34.9224 11.6156 34.308 12.375 34.308H16.5V30.191H6.875C3.17796 30.191 0.1625 27.2786 0.00635183 23.6271L0 23.3294V6.8616C0 3.07204 3.07804 0 6.875 0H37.125ZM24.75 34.308V30.191H19.25V34.308H24.75ZM37.125 2.74464H6.875C4.59683 2.74464 2.75 4.58786 2.75 6.8616V23.3294C2.75 25.6032 4.59683 27.4464 6.875 27.4464H37.125C39.4032 27.4464 41.25 25.6032 41.25 23.3294V6.8616C41.25 4.58786 39.4032 2.74464 37.125 2.74464Z" fill="#00A9C6"/>
<rect x="18.5264" y="13.8947" width="5.78947" height="3.47368" fill="#00A9C6"/>
<path d="M13.8945 13.8947H28.9472" stroke="#00A9C6" stroke-width="2.31578" stroke-linecap="round" stroke-linejoin="round"/>
<path d="M24.3159 9.26317L24.3159 22" stroke="#00A9C6" stroke-width="2.31578" stroke-linecap="round" stroke-linejoin="round"/>
<path d="M13.8945 17.3684H28.9472" stroke="#00A9C6" stroke-width="2.31578" stroke-linecap="round" stroke-linejoin="round"/>
<path d="M18.5264 9.26317L18.5264 22" stroke="#00A9C6" stroke-width="2.31578" stroke-linecap="round" stroke-linejoin="round"/>
</svg>
