<svg width="37" height="36" viewBox="0 0 37 36" fill="none" xmlns="http://www.w3.org/2000/svg">
<path d="M36.4185 22.1776C36.4185 21.2263 36.147 20.3311 35.6784 19.5763C35.37 19.0803 34.9764 18.6447 34.518 18.2874C34.9593 17.6668 35.2588 16.9304 35.3586 16.1248C35.3834 15.9277 35.3949 15.7311 35.3949 15.5366C35.3949 14.3551 34.9542 13.2526 34.216 12.4113V12.412C33.6818 11.8016 32.9849 11.326 32.1862 11.0531C32.3547 10.5406 32.4444 10.0065 32.4451 9.46794V9.46475V9.46406C32.4444 8.89688 32.3459 8.32714 32.1424 7.78348C31.9395 7.23913 31.6318 6.72092 31.2198 6.26055C30.734 5.71627 30.1502 5.30232 29.5201 5.02637C28.8976 4.75354 28.2293 4.61435 27.5591 4.61117C27.5584 4.61117 27.5508 4.61117 27.5393 4.61117V4.61048C27.5375 4.61117 27.5203 4.60985 27.4891 4.61179C27.4103 4.61235 27.3315 4.61497 27.2526 4.61878C27.0224 3.78575 26.5792 3.03926 25.986 2.4467C25.5402 2.0003 25.008 1.63912 24.4166 1.38857C23.8373 1.14313 23.1996 1.00643 22.5358 1.00069C22.5352 1.00069 22.5231 1.00069 22.5021 1H22.5008H22.4944H22.4937H22.4931H22.4924C22.4919 1 22.4912 1 22.4912 1C22.4822 1 22.4689 1 22.4492 1.00069C21.7854 1.00699 21.1489 1.14375 20.5696 1.38857C19.9776 1.63906 19.446 2.00023 18.9996 2.4467H19.0003C18.8985 2.54839 18.8019 2.65526 18.7091 2.76519C18.6168 2.65519 18.5202 2.54839 18.4185 2.4467C17.9727 2.0003 17.4406 1.63912 16.8492 1.38857C16.2699 1.14313 15.6328 1.00643 14.9683 1.00069C14.9683 1.00069 14.9555 1.00069 14.9352 1H14.9339H14.9276H14.9263H14.9256C14.9256 1 14.9256 1 14.925 1C14.9243 1 14.9243 1 14.9237 1C14.9154 1 14.9014 1 14.8823 1.00069C14.2185 1.00699 13.5814 1.14375 13.002 1.38857C12.4107 1.63906 11.8785 2.00023 11.4328 2.4467C10.8395 3.03926 10.3969 3.78513 10.1661 4.61878C10.0797 4.61366 9.9932 4.61117 9.90603 4.61117V4.61048C9.90603 4.61048 9.89967 4.61048 9.89075 4.60985C9.88888 4.61048 9.87359 4.60986 9.84495 4.61117C9.17982 4.61622 8.51662 4.75485 7.89859 5.02575C7.26839 5.30169 6.68468 5.71572 6.19892 6.26062C5.77991 6.7286 5.46516 7.2596 5.25652 7.81786C5.0474 8.37612 4.9437 8.96308 4.9437 9.54742C4.9437 9.54742 4.9437 9.55697 4.9437 9.57219H4.94432C4.94695 10.053 5.02125 10.5317 5.16244 10.9934C4.57997 11.2541 4.05727 11.6229 3.62305 12.075V12.0737C3.19443 12.5188 2.84917 13.0434 2.61009 13.6233C2.37102 14.2032 2.23999 14.8391 2.23999 15.4997C2.23999 15.5583 2.24131 15.6174 2.24318 15.6759C2.26614 16.3302 2.41743 16.9546 2.6711 17.5199C2.77542 17.752 2.89752 17.974 3.03484 18.1857C2.51912 18.5609 2.07784 19.0327 1.74026 19.5763C1.27152 20.3311 1 21.2263 1 22.1776C1 22.8574 1.13863 23.5091 1.3885 24.1011C1.63906 24.6931 2.00085 25.2247 2.44725 25.6711H2.44663C2.89171 26.1156 3.42147 26.4762 4.01085 26.7266C4.25435 26.8296 4.5081 26.913 4.77007 26.9765C4.67281 27.3663 4.62321 27.7644 4.62251 28.1612H4.62189V28.172V28.1725V28.1738C4.62189 28.853 4.76177 29.5314 5.03903 30.1629C5.31622 30.7936 5.73142 31.378 6.27833 31.8645C6.74631 32.2809 7.276 32.5944 7.83301 32.8024C8.38117 33.0065 8.95658 33.1095 9.53075 33.112C9.53967 33.1133 9.54728 33.1133 9.55372 33.1133C9.55496 33.1133 9.55628 33.1133 9.55745 33.1133H9.55877C9.55877 33.1133 9.55877 33.1133 9.55939 33.1133H9.57212V33.1127C10.021 33.112 10.4693 33.0485 10.9029 32.9251C11.062 33.1489 11.2387 33.3594 11.4327 33.5533V33.5527C11.8785 33.9997 12.4106 34.3609 13.002 34.6114C13.58 34.8556 14.2159 34.9929 14.8778 34.9987C14.8918 34.9993 14.9045 35 14.9249 35H14.9255C14.9261 35 14.9261 35 14.9261 35C14.9408 35 14.9477 34.9993 14.9477 34.9993C15.6192 34.9968 16.2633 34.8588 16.849 34.6114C17.4404 34.3609 17.9725 33.9998 18.4182 33.5533C18.52 33.4516 18.6166 33.3447 18.7089 33.2341C18.8017 33.3447 18.8983 33.4516 19.0001 33.5533C19.4458 33.9997 19.978 34.3609 20.5694 34.6114C21.1467 34.8556 21.7826 34.9929 22.4452 34.9987C22.4591 34.9993 22.4719 35 22.4916 35C22.4916 35 22.4916 35 22.4921 35C22.4928 35 22.4928 35 22.4928 35C22.4935 35 22.4935 35 22.4935 35C22.5074 35 22.5144 34.9993 22.5144 34.9993C23.1859 34.9968 23.8307 34.8588 24.4163 34.6114C25.0076 34.3609 25.5399 33.9998 25.9856 33.5527V33.5533C26.1795 33.3594 26.3563 33.1489 26.5153 32.9251C26.9534 33.0491 27.4055 33.1133 27.8595 33.1133C27.8595 33.1133 27.8601 33.1133 27.8608 33.1133C27.8634 33.1133 27.8639 33.1133 27.8659 33.1133C27.8779 33.1133 27.885 33.1127 27.8855 33.1127C28.4597 33.1095 29.0358 33.0071 29.5852 32.8017C30.1422 32.5944 30.6719 32.2809 31.1399 31.8645C31.6867 31.378 32.1019 30.7936 32.3792 30.1629C32.6539 29.5359 32.7937 28.8638 32.7957 28.1897H32.7963C32.7963 28.1796 32.7963 28.1751 32.7963 28.1751V28.1725C32.7963 27.7713 32.7461 27.3701 32.6482 26.9765C32.9101 26.9129 33.1638 26.8295 33.4074 26.7265C33.9969 26.476 34.5266 26.1155 34.9716 25.671H34.971C35.4173 25.2247 35.7792 24.6931 36.0298 24.1011C36.2799 23.509 36.4185 22.8574 36.4185 22.1776ZM18.1838 17.5542C17.8213 17.4302 17.4449 17.3672 17.0608 17.3672C16.7041 17.3672 16.3505 17.4213 16.0078 17.5281L15.9945 17.5333C15.5246 17.6967 15.0667 17.7787 14.6331 17.7787C13.8676 17.7787 13.203 17.525 12.7115 17.0468C12.267 16.6138 12.0127 16.0212 12.0127 15.4203C12.0134 14.8849 12.2098 14.366 12.5805 13.9209C12.7662 13.6984 12.7363 13.3665 12.5144 13.1808C12.4203 13.1019 12.3008 13.0587 12.1774 13.0587C12.0217 13.0587 11.8741 13.1274 11.7743 13.2469C11.242 13.8834 10.9611 14.635 10.9617 15.4197C10.9617 16.3023 11.3317 17.1696 11.9771 17.7991C12.6575 18.4642 13.5999 18.8305 14.6345 18.8305C15.1813 18.8305 15.7523 18.7288 16.3246 18.531C16.5637 18.456 16.8111 18.4185 17.0609 18.4185C17.4508 18.4185 17.8367 18.5133 18.1839 18.6938V23.2282H15.3988C15.1088 23.2282 14.8736 23.4641 14.8736 23.7541C14.8736 24.0434 15.1088 24.2793 15.3988 24.2793H18.1839V30.06C18.1839 30.4937 18.0993 30.9146 17.9391 31.3037C17.9373 31.3076 17.9353 31.3101 17.9334 31.314C17.81 31.6109 17.6435 31.885 17.4425 32.1291C17.438 32.1355 17.433 32.1406 17.4285 32.1456C17.3993 32.1806 17.3701 32.2149 17.3402 32.248C17.3134 32.2779 17.2855 32.3059 17.2575 32.3345C17.2485 32.344 17.2397 32.3542 17.2301 32.3638L17.2294 32.3644C17.2231 32.3707 17.2167 32.3758 17.2103 32.3822C17.1792 32.4133 17.1468 32.4445 17.1143 32.4738C17.0959 32.4903 17.0774 32.5062 17.059 32.5221C17.038 32.5405 17.0171 32.559 16.9955 32.5767C16.9637 32.6028 16.9312 32.6276 16.8982 32.653C16.8899 32.6594 16.8817 32.6658 16.8734 32.6721C16.6647 32.8285 16.4365 32.9595 16.1943 33.0626C16.0976 33.1032 15.9991 33.1389 15.8986 33.1706C15.8967 33.1713 15.8961 33.1713 15.8947 33.1719C15.8509 33.1853 15.807 33.198 15.7625 33.2094C15.7536 33.2119 15.7453 33.2145 15.737 33.2163C15.699 33.2266 15.6608 33.2342 15.6226 33.243C15.6073 33.2462 15.5927 33.2501 15.5774 33.2533C15.545 33.2596 15.5119 33.2648 15.4789 33.2711C15.4579 33.2742 15.4376 33.2787 15.416 33.2812C15.3868 33.2864 15.3569 33.2889 15.3276 33.2927C15.3034 33.2959 15.2786 33.2991 15.2544 33.3016C15.224 33.3048 15.1941 33.3067 15.1635 33.3086C15.1394 33.3106 15.1153 33.3131 15.091 33.3144C15.0433 33.3169 14.995 33.3176 14.9467 33.3176C14.9396 33.3176 14.9327 33.3182 14.9257 33.3182C14.918 33.3182 14.9098 33.3176 14.9015 33.3176C14.8545 33.3176 14.8074 33.3169 14.761 33.3144C14.7356 33.3131 14.7108 33.3106 14.6853 33.3086C14.6568 33.3067 14.6269 33.3048 14.5975 33.3016C14.5721 33.2991 14.5473 33.2953 14.5219 33.2927C14.4933 33.289 14.464 33.2858 14.4354 33.2812C14.4138 33.2787 14.3922 33.2742 14.3706 33.2704C14.3381 33.2648 14.3064 33.2596 14.2746 33.2533C14.2586 33.2501 14.2427 33.2457 14.2268 33.2425C14.1893 33.2342 14.1518 33.226 14.1149 33.2163C14.106 33.2139 14.0965 33.2113 14.0876 33.2087C14.0437 33.1973 14.0005 33.1852 13.9579 33.1719C13.9554 33.1712 13.9528 33.1706 13.9509 33.1699C13.8511 33.1388 13.7532 33.1032 13.6578 33.0625C13.4148 32.9595 13.1872 32.8285 12.978 32.6721C12.9692 32.6657 12.9609 32.6581 12.952 32.6517C12.9195 32.6269 12.8878 32.6027 12.8566 32.5767C12.833 32.557 12.8101 32.5366 12.7866 32.5169C12.7707 32.5029 12.7536 32.4889 12.7376 32.4743C12.6988 32.4387 12.6601 32.4018 12.6219 32.3642C12.6213 32.363 12.6206 32.3624 12.62 32.3617C12.5653 32.307 12.5125 32.2499 12.4617 32.1907C12.4534 32.1805 12.4445 32.171 12.4362 32.1608C12.2729 31.9662 12.1304 31.7526 12.0146 31.5224C12.0127 31.5185 12.0096 31.5141 12.007 31.5096C11.7858 31.0645 11.6675 30.5711 11.6675 30.0599C11.6675 29.6707 11.7546 29.2479 11.9136 28.8695C12.0891 28.4517 12.3485 28.0912 12.6639 27.828C12.772 27.7383 12.8382 27.6118 12.8508 27.4719C12.8636 27.332 12.8209 27.1959 12.7313 27.0878C12.6315 26.9683 12.484 26.8997 12.3276 26.8997C12.2048 26.8997 12.0852 26.9429 11.9912 27.0211C11.5467 27.3918 11.1848 27.891 10.9439 28.4639C10.7303 28.9745 10.6171 29.5264 10.6164 30.0599C10.6164 30.4453 10.6679 30.8268 10.769 31.1975C10.713 31.2198 10.6558 31.2413 10.5979 31.2604C10.5833 31.2655 10.5674 31.2707 10.5528 31.2751C10.5166 31.2866 10.481 31.2974 10.4447 31.3075C10.4219 31.3139 10.3989 31.3203 10.3755 31.3266C10.3468 31.3336 10.3182 31.3406 10.289 31.347C10.2622 31.354 10.2355 31.3597 10.2089 31.3648C10.1828 31.3706 10.1567 31.375 10.13 31.38C10.1021 31.3852 10.0741 31.3896 10.0454 31.394C10.0187 31.3979 9.99202 31.4016 9.96532 31.4048C9.93862 31.408 9.91129 31.4117 9.88459 31.415C9.85215 31.4175 9.82032 31.42 9.78857 31.422C9.7663 31.4239 9.74471 31.4258 9.72244 31.4271C9.66841 31.4296 9.61369 31.4315 9.55904 31.4315C8.76171 31.4315 7.99288 31.1384 7.39644 30.6081C6.70204 29.9901 6.30462 29.1023 6.304 28.1727C6.304 28.1237 6.30469 28.0754 6.30718 28.0271C6.31928 27.7486 6.36826 27.4713 6.45217 27.2017C6.45591 27.1897 6.45909 27.1769 6.46366 27.1642C6.4649 27.1585 6.46746 27.1527 6.46933 27.1477C6.48275 27.107 6.49672 27.0656 6.51201 27.025C6.51263 27.023 6.51326 27.0218 6.5145 27.0198C6.53546 26.9639 6.55836 26.9086 6.58319 26.8526C6.58575 26.8476 6.58831 26.8425 6.59018 26.8374C6.61619 26.7801 6.64358 26.7235 6.67347 26.6663C6.67416 26.665 6.67478 26.6644 6.67478 26.6644C6.7975 26.4291 6.94886 26.2091 7.12748 26.0082C7.32013 25.7914 7.30042 25.4589 7.08362 25.2662C6.9876 25.1803 6.86364 25.1333 6.73511 25.1333C6.58506 25.1333 6.44138 25.1982 6.34218 25.3101C6.31105 25.3444 6.28117 25.3801 6.25128 25.4157C6.20355 25.424 6.17367 25.4284 6.1489 25.4309C6.10753 25.4348 6.05475 25.436 5.94026 25.436C5.9377 25.436 5.93521 25.436 5.93265 25.436C5.9321 25.436 5.93141 25.436 5.93079 25.436C5.87482 25.436 5.81948 25.4341 5.76414 25.4316C5.76103 25.4309 5.75715 25.4309 5.75397 25.4303C5.7025 25.4277 5.65159 25.4239 5.60137 25.4182C5.59376 25.4182 5.58546 25.4163 5.57785 25.4157C5.53143 25.4106 5.48563 25.4049 5.43984 25.3978C5.43154 25.3966 5.42393 25.3953 5.41632 25.394C5.3699 25.3864 5.32411 25.3787 5.27893 25.3693C5.27388 25.368 5.26939 25.3667 5.26434 25.3654C5.21536 25.3552 5.16763 25.3444 5.11997 25.3323C5.11927 25.3318 5.11865 25.3318 5.11803 25.3318C4.96349 25.2917 4.81344 25.2402 4.66783 25.1785C4.42626 25.0761 4.19922 24.9445 3.99128 24.7893C3.98235 24.783 3.97412 24.7759 3.9652 24.769C3.93275 24.7442 3.901 24.72 3.87042 24.694C3.8476 24.6755 3.82532 24.6558 3.80305 24.6361C3.78589 24.6221 3.76873 24.6069 3.7522 24.5922C3.71277 24.556 3.67403 24.5197 3.63647 24.4822C3.59828 24.444 3.56141 24.4046 3.52523 24.3652C3.51755 24.3562 3.50994 24.3473 3.50164 24.3385C3.47494 24.3079 3.44824 24.2774 3.42278 24.2469C3.4012 24.2202 3.38086 24.1935 3.3599 24.1668C3.34911 24.1528 3.33762 24.1388 3.32745 24.1248C3.29812 24.086 3.2708 24.0472 3.24347 24.0072C3.24154 24.004 3.23974 24.0014 3.2378 23.9989C3.12075 23.8253 3.01969 23.6403 2.93764 23.4463C2.87787 23.3039 2.82765 23.157 2.78822 23.0056C2.78698 23.0006 2.78504 22.9955 2.78379 22.9904C2.773 22.9484 2.76408 22.9064 2.75453 22.8632C2.75204 22.853 2.74941 22.8422 2.74748 22.8308C2.73987 22.7933 2.7335 22.7551 2.72714 22.7169C2.72458 22.701 2.72077 22.6858 2.71884 22.6699C2.71372 22.6342 2.70929 22.5986 2.70486 22.563C2.703 22.544 2.70044 22.5262 2.6985 22.5071C2.69476 22.4702 2.6922 22.4334 2.6902 22.3965C2.68895 22.3787 2.68646 22.3609 2.68577 22.3431C2.68328 22.289 2.68197 22.2336 2.68197 22.1777C2.68197 22.1008 2.68446 22.0239 2.6902 21.9482C2.69338 21.8967 2.69974 21.8458 2.70611 21.7949C2.70874 21.7708 2.7106 21.7472 2.71379 21.7237C2.72264 21.6569 2.73475 21.5908 2.7481 21.5253C2.75004 21.5176 2.75066 21.51 2.75197 21.5024C2.76719 21.4325 2.78435 21.3625 2.80406 21.2945C2.80475 21.2913 2.80538 21.2874 2.806 21.2849C2.82565 21.2169 2.84723 21.1502 2.87082 21.0834C2.87269 21.0789 2.87338 21.0751 2.87525 21.0706C2.89752 21.0077 2.92298 20.9467 2.94899 20.8856C2.95286 20.8773 2.95535 20.869 2.95916 20.8614C2.98461 20.8029 3.01318 20.7457 3.04252 20.6891C3.04763 20.6789 3.05206 20.6681 3.05711 20.6579C3.09212 20.5919 3.12961 20.527 3.16904 20.4634C3.20785 20.4011 3.24859 20.34 3.29051 20.2809C3.5004 19.9897 3.75663 19.7347 4.04849 19.5261C4.05423 19.5217 4.05928 19.5173 4.06502 19.5135C4.07519 19.5065 4.08598 19.5001 4.09615 19.4931C4.20676 19.4174 4.32125 19.3474 4.44079 19.2858L4.4421 19.2845C4.44584 19.2826 4.44971 19.2807 4.45289 19.2794C4.49295 19.2584 4.53362 19.2393 4.57368 19.2209C4.59595 19.2107 4.61753 19.2006 4.6405 19.1904C4.64237 19.1904 4.64424 19.1885 4.64617 19.1878C5.05445 19.0104 5.48806 18.9195 5.94019 18.9195C6.67845 18.9195 7.37347 19.1605 7.95144 19.6164C8.08433 19.762 8.51101 20.2096 9.14813 20.6605C9.59259 20.9747 10.0492 21.2264 10.5064 21.4076C11.0901 21.6397 11.6752 21.7574 12.2461 21.7574C12.5355 21.7574 12.7714 21.5215 12.7714 21.2315C12.7714 20.9415 12.5355 20.7063 12.2461 20.7063C11.8093 20.7063 11.3547 20.6135 10.8937 20.4309C10.2272 20.1664 9.66578 19.7576 9.31229 19.4612C9.1114 19.2922 8.95492 19.142 8.85953 19.046C8.80868 18.9939 8.76925 18.9526 8.74317 18.9239L8.71017 18.8871L8.6917 18.8661C8.6834 18.8565 8.67455 18.8476 8.66431 18.8399L8.64273 18.8215C7.88095 18.2073 6.92209 17.8684 5.94026 17.8684C5.64149 17.8684 5.34133 17.9002 5.04691 17.9631C4.98078 17.9059 4.91908 17.8455 4.85868 17.7838C4.83641 17.7622 4.81483 17.74 4.79317 17.717C4.77477 17.6967 4.75699 17.6763 4.73845 17.656C4.72254 17.6376 4.70546 17.6185 4.68948 17.5994C4.65517 17.5593 4.6221 17.518 4.59028 17.476C4.58391 17.4684 4.57879 17.4608 4.57312 17.4531C4.54573 17.4169 4.51909 17.38 4.49371 17.3425C4.48866 17.3355 4.48416 17.3285 4.47904 17.3209C4.45303 17.2822 4.42757 17.2433 4.40274 17.2027C4.39956 17.1975 4.39638 17.1925 4.39382 17.1874C4.36781 17.1448 4.34235 17.1015 4.31883 17.0577C4.31696 17.0545 4.31565 17.0519 4.31378 17.0488C4.28894 17.0018 4.2648 16.9547 4.24128 16.907C4.24128 16.907 4.24128 16.9057 4.24059 16.9051C4.09878 16.6082 4.00151 16.2895 3.9544 15.9602C3.95385 15.957 3.95316 15.9538 3.95316 15.9538C3.9461 15.9042 3.94168 15.8559 3.93663 15.8083C3.93593 15.8 3.93476 15.7917 3.93407 15.7834C3.93019 15.737 3.9277 15.6906 3.92514 15.6436C3.92514 15.6346 3.9239 15.6257 3.9239 15.6168V15.6162C3.92258 15.5774 3.92196 15.5386 3.92196 15.4997C3.92196 15.4457 3.92327 15.3923 3.92583 15.3389C3.92653 15.3211 3.92839 15.3027 3.92971 15.2849C3.93227 15.2499 3.93414 15.2149 3.93732 15.1806C3.93925 15.159 3.94306 15.1386 3.94493 15.117C3.9488 15.0852 3.95254 15.054 3.95696 15.0228C3.95959 15.0025 3.96333 14.9822 3.96651 14.9631C3.97225 14.9307 3.9773 14.8982 3.98367 14.8664C3.98678 14.8493 3.99128 14.8321 3.99508 14.8156C4.00214 14.7806 4.00975 14.7462 4.01798 14.7119C4.02116 14.6992 4.02496 14.6871 4.02815 14.6744C4.03832 14.6362 4.04855 14.5975 4.05997 14.5593C4.06253 14.5523 4.06509 14.5441 4.06758 14.5365C4.08093 14.4938 4.09428 14.4519 4.1095 14.4099C4.11012 14.4067 4.11206 14.4036 4.11268 14.4004C4.12921 14.3546 4.14644 14.3088 4.16546 14.2636L4.16609 14.2624C4.20489 14.167 4.24875 14.0748 4.29641 13.9839C4.29641 13.9839 4.29641 13.9839 4.29711 13.9832C4.32063 13.9381 4.34539 13.8941 4.37085 13.8509C4.37272 13.8471 4.37465 13.8439 4.37659 13.8407C4.40073 13.8007 4.42557 13.7606 4.45096 13.7212C4.4567 13.713 4.46306 13.7041 4.4688 13.6952C4.49108 13.6621 4.51328 13.6291 4.53687 13.5966C4.55022 13.5775 4.56544 13.5591 4.57949 13.5407C4.59602 13.5191 4.61193 13.4968 4.62909 13.4751C4.65703 13.4401 4.68567 13.4058 4.71493 13.3721C4.71936 13.3671 4.72324 13.3619 4.72704 13.3575C4.76197 13.318 4.7976 13.2793 4.83385 13.2411C4.83516 13.2404 4.83579 13.2393 4.83634 13.2386C4.88407 13.1896 4.93305 13.1425 4.98327 13.0967C4.99662 13.0847 5.00997 13.0726 5.02395 13.0606C5.13076 12.9664 5.24331 12.8781 5.36229 12.7979C5.3699 12.7935 5.37751 12.7884 5.38512 12.7833C5.51164 12.6994 5.64453 12.6243 5.78316 12.5582C5.78448 12.5576 5.78572 12.5569 5.78635 12.5569C6.00066 12.4552 6.22825 12.3763 6.46545 12.3235C6.46739 12.3229 6.46919 12.3222 6.4712 12.3216C6.66448 12.279 6.8635 12.2529 7.06508 12.2459C7.10195 12.244 7.1382 12.244 7.18143 12.244H7.18206C7.34995 12.244 7.51846 12.2567 7.6831 12.2822C7.71043 12.2861 7.73713 12.2886 7.76383 12.2886C8.02518 12.2886 8.24268 12.1009 8.28335 11.8428C8.32721 11.5567 8.13006 11.2877 7.84394 11.2432C7.6252 11.2095 7.40328 11.1923 7.18199 11.1923C7.14574 11.1923 7.10887 11.193 7.07262 11.1942C7.0491 11.1542 7.02752 11.1128 7.00649 11.0721C6.98297 11.0284 6.96069 10.9844 6.93973 10.9399C6.93212 10.9233 6.92451 10.9074 6.91746 10.8903C6.8958 10.8426 6.87484 10.7955 6.85575 10.7472C6.85001 10.7326 6.84427 10.7173 6.83922 10.7027C6.82012 10.6531 6.80235 10.6035 6.78581 10.5526C6.78069 10.538 6.77627 10.5221 6.77184 10.5075C6.75662 10.4573 6.74195 10.4076 6.72923 10.3574C6.72411 10.339 6.7203 10.3218 6.71587 10.3034C6.70508 10.2557 6.6936 10.208 6.68468 10.1597C6.67956 10.1356 6.67637 10.112 6.67195 10.0885C6.66489 10.0452 6.65797 10.0026 6.65223 9.95937C6.6478 9.92437 6.64462 9.88936 6.64144 9.85374C6.63826 9.82129 6.63445 9.78885 6.63252 9.75585C6.62809 9.68778 6.62553 9.61916 6.62553 9.54984V9.54853C6.62553 8.79754 6.88425 8.07395 7.35618 7.49467C7.36129 7.48768 7.36697 7.48132 7.37264 7.47495C7.39872 7.4432 7.42542 7.41138 7.45344 7.38018C7.47059 7.36109 7.48844 7.34331 7.50553 7.32491C7.5278 7.30076 7.55008 7.27655 7.57298 7.25366C8.18215 6.64068 9.01511 6.29224 9.885 6.29154C9.88632 6.29154 9.88881 6.29154 9.89068 6.29154C9.94671 6.29224 10.002 6.29348 10.0579 6.29666C10.0757 6.29791 10.0936 6.29922 10.1107 6.3004C10.1533 6.30358 10.1966 6.30745 10.2392 6.31188C10.255 6.31375 10.2709 6.31569 10.2875 6.31762C10.3434 6.32454 10.4001 6.33284 10.456 6.34239C10.4566 6.34294 10.4579 6.34294 10.4592 6.34294C10.5189 6.35373 10.5787 6.36653 10.6385 6.38113C11.151 6.50323 11.6292 6.74873 12.0323 7.10098C12.1442 7.22813 12.6287 7.76674 13.2563 8.3232C13.6791 8.69703 14.0817 9.00418 14.453 9.23564C14.6864 9.38064 14.9025 9.49381 15.113 9.58159C15.3622 9.68522 15.5912 9.74755 15.813 9.77169C15.8328 9.77425 15.8519 9.7755 15.8716 9.7755C16.1399 9.7755 16.3637 9.57454 16.3936 9.30752C16.4089 9.16826 16.3694 9.03095 16.2817 8.92151C16.1939 8.81152 16.0687 8.74283 15.9288 8.72761C15.8111 8.71488 15.6687 8.67413 15.5161 8.61056C15.2528 8.50181 14.938 8.31421 14.6055 8.06821C14.1108 7.70254 13.6453 7.26313 13.342 6.95862C13.1698 6.7856 13.0299 6.63681 12.9434 6.54273C12.8963 6.49126 12.8595 6.45051 12.8346 6.42319L12.8073 6.39144L12.6496 6.53131L12.7997 6.3832L12.7864 6.36792L12.7686 6.34951L12.7526 6.33554C12.4315 6.0488 12.0722 5.81284 11.6825 5.63423C11.7092 5.34486 11.774 5.06642 11.8713 4.80383C11.8745 4.79553 11.8777 4.78792 11.8809 4.77968C11.8942 4.74406 11.9082 4.70912 11.9228 4.67412C11.9286 4.66077 11.9349 4.64742 11.9407 4.634C11.9534 4.60474 11.9661 4.57547 11.9794 4.54753C11.9877 4.52975 11.9966 4.51322 12.0049 4.49599C12.017 4.47122 12.029 4.44701 12.0417 4.42232C12.052 4.40322 12.0633 4.38413 12.0742 4.36442C12.0857 4.34346 12.0971 4.3218 12.1098 4.30077C12.1219 4.27912 12.1353 4.25885 12.148 4.23782C12.1595 4.21942 12.1703 4.20033 12.1824 4.18193C12.197 4.1591 12.2123 4.13682 12.2275 4.11386C12.2383 4.09795 12.2491 4.08204 12.2605 4.06619C12.2777 4.04143 12.2962 4.01659 12.3146 3.99176C12.3241 3.97903 12.333 3.96637 12.3426 3.95357C12.3648 3.92563 12.3871 3.89761 12.4093 3.87098C12.4169 3.86205 12.4233 3.85313 12.4303 3.84427C12.4576 3.81245 12.485 3.78195 12.5123 3.75075C12.5162 3.74687 12.5199 3.74245 12.5238 3.73864C12.5556 3.70364 12.588 3.66933 12.6218 3.63564C12.66 3.59814 12.6987 3.56127 12.7381 3.52502C12.7496 3.51485 12.7617 3.50531 12.7731 3.49514C12.8005 3.47037 12.8284 3.44616 12.857 3.42202C12.8837 3.40037 12.9118 3.37878 12.9396 3.35782C12.9524 3.34765 12.9658 3.33686 12.9791 3.32662C13.0173 3.29805 13.0567 3.27073 13.0961 3.24334C13.0993 3.2414 13.1019 3.23891 13.105 3.23759C13.278 3.12055 13.463 3.01955 13.6576 2.93751C13.7511 2.89807 13.8477 2.86245 13.9457 2.83194C13.9501 2.83 13.954 2.82876 13.9577 2.82744C13.9997 2.81472 14.0423 2.80268 14.0843 2.79127C14.0945 2.78871 14.1047 2.78615 14.1154 2.78296C14.1517 2.77342 14.1886 2.76581 14.2255 2.75751C14.242 2.75432 14.2579 2.7499 14.2745 2.74672C14.3062 2.74035 14.3381 2.73523 14.3705 2.72956C14.3921 2.72582 14.4137 2.72126 14.4353 2.71815C14.464 2.71365 14.4932 2.71109 14.5218 2.70735C14.5472 2.70417 14.5721 2.7003 14.5975 2.69781C14.6268 2.69525 14.6572 2.69338 14.6866 2.69144C14.7113 2.68958 14.7355 2.68702 14.7609 2.68577C14.8087 2.68328 14.8563 2.68259 14.9047 2.68197C14.9117 2.68197 14.9187 2.68197 14.9257 2.68197C14.9339 2.68197 14.9416 2.68197 14.9499 2.68259C14.9969 2.68259 15.0439 2.68328 15.091 2.68577C15.1164 2.68702 15.1419 2.68958 15.1667 2.69144C15.196 2.69338 15.2252 2.69532 15.2539 2.69781C15.2799 2.70099 15.3054 2.70417 15.3314 2.70735C15.3595 2.71109 15.388 2.71365 15.416 2.71815C15.4383 2.72126 15.4605 2.72575 15.4822 2.73018C15.514 2.73523 15.5458 2.74035 15.5769 2.74672C15.5934 2.7499 15.6099 2.75432 15.6272 2.7582C15.6634 2.76581 15.7003 2.77411 15.7365 2.78303C15.7467 2.78622 15.7569 2.78877 15.767 2.79133C15.8097 2.80275 15.8516 2.81485 15.8929 2.82751C15.8974 2.82883 15.9012 2.83007 15.9056 2.83201C16.0036 2.86245 16.0996 2.89807 16.1943 2.93757C16.3882 3.02017 16.5733 3.12069 16.7469 3.23766C16.7489 3.23898 16.7508 3.24015 16.7533 3.24216C16.7933 3.26942 16.8334 3.29743 16.8728 3.32732C16.8856 3.33624 16.8976 3.34641 16.9103 3.35596C16.9383 3.37816 16.9669 3.39981 16.9949 3.42271C17.0223 3.44499 17.0483 3.46851 17.075 3.49203C17.0878 3.50351 17.1005 3.51361 17.1138 3.52509C17.1527 3.56134 17.192 3.59821 17.2295 3.63571C17.2677 3.67389 17.3046 3.71332 17.3408 3.75275C17.3561 3.76929 17.3707 3.78713 17.3854 3.80422C17.4051 3.8265 17.4248 3.84877 17.4433 3.87105C17.6442 4.11524 17.8101 4.38987 17.9335 4.68616C17.9354 4.68934 17.9374 4.69252 17.9386 4.69639C18.0995 5.08551 18.1841 5.50646 18.1841 5.94013V17.5542H18.1838ZM34.7329 22.3429C34.7316 22.3608 34.7297 22.3785 34.7284 22.3957C34.7265 22.4332 34.724 22.4701 34.7202 22.507C34.7182 22.5254 34.7158 22.5432 34.7138 22.5617C34.7093 22.5972 34.7055 22.6342 34.6998 22.6697C34.698 22.6849 34.6948 22.7002 34.6922 22.7155C34.6859 22.7537 34.6789 22.7931 34.6712 22.8312C34.6693 22.8413 34.6668 22.8516 34.6642 22.8617C34.6553 22.905 34.6458 22.9482 34.6343 22.9908C34.6337 22.9947 34.6325 22.9991 34.6311 23.0029C34.5917 23.1555 34.5415 23.303 34.4811 23.4461C34.3781 23.6883 34.2465 23.9166 34.0906 24.1252C34.0837 24.1347 34.0754 24.1449 34.0678 24.1551C34.0443 24.1857 34.02 24.2168 33.9953 24.2467C33.9749 24.2721 33.9533 24.2963 33.9316 24.3211C33.919 24.3358 33.9062 24.351 33.8928 24.3657C33.8572 24.4051 33.8203 24.4438 33.7828 24.4813L33.7821 24.482C33.7764 24.4871 33.7707 24.4922 33.765 24.4979C33.7332 24.5297 33.7001 24.5615 33.6671 24.5914C33.6499 24.6067 33.6321 24.6219 33.6149 24.6366C33.5934 24.6562 33.5711 24.6753 33.5481 24.6944C33.5177 24.7191 33.4864 24.7434 33.4554 24.7675C33.4458 24.7746 33.4363 24.7822 33.4267 24.7898C33.386 24.8197 33.3447 24.8495 33.3027 24.8782C33.3021 24.8782 33.3021 24.8788 33.3014 24.8788C33.1291 24.9952 32.9448 25.0963 32.7508 25.179C32.6064 25.24 32.4571 25.2909 32.3025 25.3309C32.3012 25.3316 32.2999 25.3316 32.2987 25.3322C32.251 25.3443 32.2033 25.3552 32.1557 25.3653C32.1505 25.3666 32.1449 25.3678 32.1397 25.3691C32.0946 25.3786 32.0482 25.3863 32.0024 25.3939C31.9948 25.3951 31.9871 25.3965 31.9795 25.3977C31.9337 25.4048 31.8873 25.4104 31.8409 25.4156C31.8332 25.4162 31.8256 25.4181 31.8173 25.4181C31.7671 25.4239 31.7162 25.4277 31.6653 25.4301C31.6615 25.4308 31.6577 25.4308 31.6545 25.4315C31.5993 25.434 31.5439 25.4359 31.488 25.4359C31.4873 25.4359 31.4873 25.4359 31.4866 25.4359C31.4835 25.4359 31.4809 25.4359 31.4783 25.4359C31.4218 25.4359 31.3798 25.4359 31.3493 25.4346C31.3098 25.434 31.2921 25.4321 31.2633 25.4276C31.2386 25.4238 31.2068 25.418 31.1623 25.4098C31.1343 25.376 31.1057 25.343 31.0764 25.31C30.9772 25.1981 30.8335 25.1332 30.6834 25.1332C30.555 25.1332 30.431 25.1802 30.335 25.2661C30.1182 25.4587 30.0985 25.7913 30.2911 26.008C30.4698 26.209 30.6205 26.4284 30.7432 26.6624C30.7439 26.6637 30.7445 26.665 30.7451 26.6663C30.775 26.7235 30.8024 26.7807 30.8284 26.8379C30.831 26.8424 30.8329 26.8474 30.8348 26.8519C30.8603 26.9085 30.8838 26.9657 30.9054 27.0223C30.906 27.0229 30.906 27.0242 30.9067 27.0248C30.9105 27.0363 30.9143 27.0471 30.9182 27.0586C30.9309 27.0935 30.9442 27.1291 30.9556 27.1648V27.1654C31.0618 27.4922 31.1146 27.8331 31.1146 28.1726C31.1141 29.0437 30.7642 29.8781 30.15 30.4878C30.1086 30.5285 30.0661 30.5685 30.0222 30.608C29.9847 30.6411 29.9465 30.6735 29.9077 30.7053C29.329 31.1739 28.6073 31.4314 27.8596 31.4314C27.8048 31.4314 27.7508 31.4296 27.6962 31.427C27.6745 31.4257 27.6529 31.4238 27.6313 31.4225C27.5988 31.42 27.5664 31.4181 27.5333 31.4149C27.5073 31.4117 27.4818 31.4079 27.4558 31.4054C27.4278 31.4015 27.3992 31.3978 27.3712 31.3939C27.3445 31.3895 27.3178 31.385 27.2911 31.3799C27.2631 31.3748 27.235 31.3697 27.2077 31.3647C27.1823 31.3589 27.1569 31.3539 27.132 31.3482C27.1009 31.3405 27.0697 31.3335 27.0386 31.3252C27.0175 31.3194 26.9966 31.3138 26.9762 31.3081C26.9368 31.2973 26.8974 31.2851 26.8586 31.2731C26.8465 31.2686 26.8344 31.2654 26.8223 31.261C26.7645 31.2419 26.7067 31.2203 26.6494 31.1974C26.7505 30.8267 26.802 30.4452 26.802 30.0598C26.8013 29.6414 26.7295 29.2001 26.5934 28.7836C26.3607 28.0733 25.9576 27.4635 25.4272 27.0209C25.1245 26.7685 24.7831 26.5727 24.4117 26.4391C24.0149 26.2967 23.5813 26.2242 23.1234 26.2242C22.8335 26.2242 22.5976 26.4595 22.5976 26.7494C22.5976 27.0393 22.8335 27.2746 23.1228 27.2746C23.5634 27.2752 23.9627 27.3637 24.3112 27.5379C24.7627 27.7642 25.1372 28.1433 25.3947 28.6355C25.6218 29.0678 25.7514 29.5867 25.7508 30.0598C25.7508 30.571 25.6326 31.0644 25.4113 31.5095C25.4087 31.5134 25.4061 31.5185 25.4037 31.5223C25.2879 31.7525 25.1455 31.9668 24.9821 32.1613C24.9738 32.1709 24.9656 32.1804 24.9566 32.19C24.9058 32.2497 24.8523 32.3082 24.797 32.3635C24.7963 32.3635 24.7963 32.3635 24.7963 32.3635V32.3641C24.79 32.3705 24.7836 32.3756 24.7773 32.3819C24.7454 32.4131 24.7137 32.4443 24.6806 32.4735C24.6628 32.4901 24.6437 32.5059 24.6253 32.5218C24.6043 32.5402 24.5839 32.5588 24.5623 32.5765C24.5299 32.6025 24.4974 32.6273 24.4651 32.6528C24.4568 32.6591 24.4485 32.6655 24.4403 32.6719C24.2311 32.8283 24.0034 32.9592 23.7606 33.0623C23.6639 33.103 23.5653 33.1386 23.4649 33.1703C23.4636 33.171 23.4623 33.171 23.461 33.1717C23.4178 33.185 23.3733 33.1977 23.3288 33.2091C23.3205 33.2116 23.3122 33.2142 23.3039 33.2161C23.2657 33.2263 23.2276 33.2339 23.1894 33.2428C23.1742 33.246 23.159 33.2498 23.1443 33.253C23.1113 33.2593 23.0782 33.2645 23.0458 33.2708C23.0248 33.274 23.0038 33.2784 22.9829 33.281C22.9535 33.2861 22.9244 33.2886 22.8945 33.2924C22.8697 33.2956 22.8455 33.2988 22.8207 33.3014C22.7908 33.3045 22.761 33.3064 22.7305 33.3083C22.7063 33.3103 22.6821 33.3128 22.6574 33.3141C22.6097 33.3166 22.562 33.3173 22.5137 33.3173C22.5067 33.3173 22.4997 33.3179 22.4927 33.3179C22.4844 33.3179 22.4768 33.3173 22.4685 33.3173C22.4214 33.3173 22.3738 33.3166 22.3274 33.3141C22.3026 33.3128 22.2771 33.3103 22.2524 33.3083C22.2232 33.3064 22.1938 33.3045 22.1646 33.3014C22.1392 33.2988 22.1137 33.295 22.0889 33.2924C22.0596 33.2887 22.031 33.2855 22.0024 33.281C21.9809 33.2784 21.9592 33.274 21.9375 33.2702C21.9052 33.2645 21.8733 33.2594 21.8408 33.253C21.8249 33.2498 21.8097 33.2454 21.7938 33.2422C21.7563 33.2339 21.7187 33.2257 21.6819 33.2161C21.6723 33.2136 21.6635 33.211 21.6545 33.2085C21.6107 33.197 21.5668 33.1849 21.5242 33.1716C21.5223 33.171 21.5198 33.1703 21.5179 33.1697C21.4174 33.1385 21.3201 33.1029 21.2241 33.0622C20.9818 32.9592 20.7535 32.8282 20.5449 32.6718C20.536 32.6654 20.5272 32.6578 20.5182 32.6514C20.4865 32.6266 20.454 32.6024 20.4228 32.5764C20.3993 32.5567 20.3764 32.5363 20.3535 32.5166C20.3376 32.5026 20.3205 32.4886 20.3046 32.474C20.2651 32.4384 20.2263 32.4015 20.1888 32.3639C20.1506 32.3258 20.1138 32.287 20.0775 32.247C20.0565 32.2241 20.0362 32.1993 20.0158 32.1758C20.0025 32.1599 19.9884 32.144 19.9751 32.1287C19.7742 31.8845 19.6082 31.6098 19.4849 31.3136C19.483 31.3097 19.481 31.3072 19.4791 31.3033C19.3189 30.9142 19.2343 30.4933 19.2343 30.0596V17.0373C19.9064 17.0627 20.4933 17.1403 20.9798 17.2674C21.4458 17.3882 21.8229 17.5523 22.1313 17.7672C22.3628 17.9287 22.5504 18.1157 22.7068 18.3401C22.9319 18.6625 23.0921 19.0657 23.2257 19.6468C23.2702 19.8389 23.3084 20.0321 23.3484 20.2369C23.3859 20.4264 23.4247 20.6235 23.4685 20.8174C23.5525 21.1868 23.6377 21.4654 23.7445 21.7223C23.8462 21.9677 23.9639 22.1814 24.1051 22.3741C24.3454 22.7053 24.6564 22.9737 25.0296 23.1721C25.4277 23.3844 25.895 23.523 26.459 23.5955C26.4819 23.5987 26.5042 23.6006 26.5271 23.6006C26.7897 23.6006 27.0135 23.4035 27.0472 23.1415C27.0657 23.0029 27.0281 22.8642 26.9424 22.7536C26.8566 22.6423 26.7325 22.5718 26.5938 22.5533C26.089 22.4884 25.6966 22.3619 25.3947 22.1685C25.1752 22.0273 25.008 21.8557 24.8694 21.6281C24.7613 21.4501 24.671 21.2351 24.5928 20.9693C24.5089 20.6876 24.4472 20.3754 24.3824 20.0447C24.3448 19.8546 24.3061 19.6575 24.2609 19.4585C24.1815 19.1075 24.062 18.6465 23.84 18.1975C23.6715 17.858 23.4585 17.5565 23.2054 17.3015C22.7775 16.8685 22.2052 16.5397 21.5051 16.3236C20.8705 16.1284 20.1266 16.0171 19.2345 15.9866V12.193H22.2822C22.5722 12.193 22.8081 11.9564 22.8081 11.6671C22.8081 11.3771 22.5722 11.1413 22.2822 11.1413H19.2345V5.93985C19.2345 5.50618 19.3191 5.08524 19.4793 4.69612C19.4811 4.69224 19.4832 4.68906 19.485 4.68588C19.6084 4.38953 19.7743 4.11489 19.9753 3.87077C19.9861 3.85797 19.9976 3.84531 20.0083 3.83258C20.0312 3.80588 20.0541 3.77849 20.0783 3.75185C20.1062 3.72066 20.1349 3.69139 20.1641 3.66151C20.1724 3.65321 20.18 3.64435 20.1889 3.63536C20.2265 3.59731 20.2658 3.56037 20.3053 3.52475C20.3167 3.51458 20.3281 3.50503 20.3396 3.49486C20.3676 3.4701 20.3955 3.44589 20.4235 3.42174C20.4509 3.40009 20.4783 3.37851 20.5061 3.35755C20.5195 3.34738 20.5323 3.33659 20.5456 3.32635C20.5844 3.29778 20.6231 3.27045 20.6632 3.24306C20.6664 3.24112 20.6689 3.23863 20.6715 3.23732C20.8451 3.12027 21.0301 3.01927 21.2241 2.93723C21.3181 2.8978 21.4148 2.86217 21.5127 2.83166C21.5172 2.82973 21.521 2.82848 21.5255 2.82717C21.5661 2.81444 21.6087 2.8024 21.6513 2.79099C21.6615 2.78843 21.6717 2.78587 21.6819 2.78269C21.7187 2.77314 21.7556 2.76553 21.7925 2.75723C21.8084 2.75405 21.8249 2.74962 21.8408 2.74644C21.8732 2.74007 21.9057 2.73496 21.9375 2.72928C21.9591 2.72555 21.9807 2.72098 22.0024 2.71787C22.0309 2.71337 22.0596 2.71081 22.0888 2.70708C22.1137 2.70389 22.1391 2.70002 22.1645 2.69753C22.1938 2.69497 22.2237 2.6931 22.2535 2.69117C22.2784 2.6893 22.3025 2.68674 22.3273 2.68549C22.375 2.683 22.4233 2.68231 22.4717 2.68169C22.4786 2.68169 22.4856 2.68169 22.4926 2.68169C22.5002 2.68169 22.5085 2.68169 22.5168 2.68231C22.5638 2.68231 22.6109 2.683 22.6573 2.68549C22.6827 2.68674 22.7082 2.6893 22.7336 2.69117C22.7629 2.6931 22.7921 2.69504 22.8207 2.69753C22.8461 2.70071 22.8722 2.70389 22.8983 2.70708C22.9262 2.71081 22.9549 2.71337 22.9822 2.71787C23.005 2.72098 23.0267 2.72548 23.0489 2.72991C23.0801 2.73496 23.1119 2.74007 23.143 2.74644C23.1602 2.74962 23.1768 2.75405 23.1932 2.75792C23.2295 2.76553 23.2664 2.77383 23.3026 2.78276C23.3134 2.78594 23.3236 2.7885 23.3337 2.79106C23.3757 2.80247 23.4183 2.81458 23.4596 2.82724C23.4634 2.82855 23.4679 2.8298 23.4717 2.83173C23.5703 2.86217 23.6669 2.8978 23.7604 2.9373C23.955 3.01989 24.14 3.12041 24.3136 3.23739C24.3154 3.2387 24.3174 3.23988 24.3193 3.24188C24.36 3.26914 24.4 3.29716 24.4395 3.32704C24.4516 3.33596 24.4643 3.34613 24.4763 3.35568C24.5049 3.37788 24.5336 3.39954 24.5609 3.42243C24.5883 3.44471 24.615 3.46823 24.6417 3.49175C24.6544 3.50323 24.6677 3.51333 24.6799 3.52482C24.7193 3.56106 24.758 3.59794 24.7962 3.63543C24.83 3.66919 24.8623 3.7035 24.8948 3.73843C24.8954 3.73906 24.8954 3.73975 24.896 3.74037C24.9272 3.77399 24.9577 3.80899 24.987 3.844C24.9933 3.85161 24.999 3.85922 25.0048 3.8662C25.0289 3.89484 25.0525 3.9241 25.0753 3.95337C25.0849 3.9661 25.0932 3.97882 25.1027 3.99086C25.1211 4.0157 25.1396 4.04046 25.1574 4.06592C25.1689 4.08183 25.1797 4.09836 25.1904 4.1142C25.2057 4.13648 25.221 4.15875 25.2356 4.18158C25.2477 4.19998 25.2591 4.21907 25.2706 4.23817C25.2833 4.25851 25.296 4.27954 25.3081 4.3005C25.3208 4.32153 25.3322 4.34311 25.3443 4.36531C25.3551 4.38385 25.3659 4.40288 25.3761 4.42197C25.3888 4.44674 25.4009 4.47219 25.4136 4.49696C25.4219 4.51349 25.4302 4.53002 25.4384 4.54718C25.4518 4.57582 25.4646 4.60508 25.4773 4.63497C25.483 4.64763 25.4894 4.66042 25.495 4.67433C25.5097 4.70871 25.5237 4.74434 25.5376 4.77996C25.5402 4.78826 25.5434 4.79587 25.5466 4.80348C25.6438 5.06608 25.7087 5.34458 25.7354 5.63457C25.3457 5.81326 24.9864 6.04853 24.6646 6.33526C24.4484 6.52854 24.43 6.86177 24.6226 7.07802C24.7225 7.18932 24.8649 7.25352 25.0149 7.25352C25.144 7.25352 25.2681 7.20579 25.3647 7.12001C25.7697 6.75814 26.2536 6.50703 26.7731 6.38237C26.8921 6.35436 27.0122 6.33277 27.1325 6.31755C27.1464 6.31562 27.1605 6.31437 27.1744 6.31306C27.2189 6.30739 27.264 6.30358 27.3092 6.30102C27.3251 6.29971 27.3423 6.29846 27.3588 6.29715C27.4147 6.29459 27.4713 6.2921 27.5279 6.2921C27.5297 6.2921 27.5317 6.2921 27.533 6.2921C28.4029 6.29272 29.2365 6.64061 29.845 7.25352C29.8857 7.29419 29.9257 7.33681 29.9652 7.38066C29.9977 7.41747 30.0294 7.45441 30.0599 7.49128C30.0886 7.5269 30.1165 7.56253 30.1432 7.59878C30.1452 7.60127 30.1471 7.60321 30.149 7.6057C30.1738 7.63945 30.1973 7.67307 30.2208 7.70746C30.2247 7.71313 30.2292 7.71887 30.2329 7.72461C30.2538 7.75519 30.2729 7.78569 30.292 7.81682C30.299 7.82699 30.3053 7.83654 30.3117 7.8474C30.3276 7.87341 30.3429 7.90011 30.3581 7.92751C30.3664 7.9428 30.3759 7.95808 30.3841 7.97337C30.3962 7.99495 30.407 8.01723 30.4185 8.03944C30.4293 8.05984 30.4408 8.08143 30.4509 8.10239C30.4592 8.11954 30.4675 8.13732 30.4757 8.15455C30.4871 8.18056 30.4998 8.2067 30.5107 8.23341C30.517 8.248 30.5227 8.26267 30.5291 8.27727C30.5411 8.30653 30.5532 8.33572 30.564 8.36498C30.5692 8.37896 30.5736 8.393 30.5793 8.40697C30.59 8.43741 30.6003 8.46729 30.6105 8.49787C30.6149 8.51184 30.6188 8.52589 30.6232 8.53986C30.6327 8.57037 30.6423 8.60087 30.6505 8.63207C30.655 8.64861 30.6588 8.66514 30.6632 8.6816C30.6709 8.70962 30.6779 8.73764 30.6843 8.76621C30.6894 8.7891 30.6944 8.81262 30.6989 8.83614C30.7034 8.85787 30.7078 8.87945 30.7122 8.90166C30.718 8.93541 30.723 8.96973 30.7281 9.00411C30.73 9.0149 30.7319 9.02693 30.7338 9.03842C30.7529 9.17892 30.7624 9.32197 30.7624 9.46766C30.7624 9.53442 30.7599 9.60117 30.7554 9.66862C30.7548 9.68322 30.7535 9.69781 30.7528 9.7131C30.7478 9.77674 30.7414 9.84094 30.7325 9.9052C30.7306 9.9198 30.7281 9.9344 30.7261 9.94899C30.7185 10.0025 30.7096 10.0552 30.6988 10.108C30.6957 10.1252 30.6925 10.1423 30.6893 10.1595C30.676 10.2186 30.6613 10.2777 30.6461 10.3369C30.6403 10.3591 30.634 10.3814 30.6277 10.4037C30.6124 10.4559 30.5965 10.5073 30.5787 10.5589C30.5716 10.5804 30.5634 10.6021 30.5564 10.6237C30.5386 10.6733 30.5195 10.7217 30.4998 10.77C30.4915 10.7903 30.4833 10.8107 30.4744 10.8303C30.4496 10.8882 30.4229 10.9467 30.3949 11.0039C30.3873 11.0192 30.379 11.0344 30.3708 11.0503C30.3428 11.1056 30.3123 11.1616 30.2811 11.2162C30.2022 11.3523 30.1158 11.4846 30.0192 11.6117C30.0065 11.6264 29.9944 11.6423 29.9836 11.6581C29.8863 11.7822 29.7845 11.8985 29.6809 12.0028C29.4914 12.1942 29.2237 12.3901 28.9077 12.57C28.4346 12.8389 27.9196 13.0373 27.5704 13.1556C27.3715 13.2237 27.2048 13.2733 27.1006 13.3032C27.044 13.3184 26.9994 13.3312 26.9689 13.3388L26.9282 13.349C26.6466 13.4177 26.473 13.7025 26.541 13.9836C26.5983 14.2208 26.8081 14.3854 27.0516 14.3854C27.0935 14.3854 27.1355 14.3804 27.1762 14.3708C27.2315 14.3574 27.7371 14.2309 28.3742 13.9803C28.7608 13.8278 29.115 13.6605 29.4266 13.4837C29.8367 13.251 30.1636 13.0081 30.4274 12.7424C30.5108 12.659 30.5921 12.57 30.671 12.4778C30.7511 12.4791 30.8318 12.4842 30.9126 12.4906C30.9157 12.4919 30.9195 12.4925 30.9234 12.4925C30.9653 12.4962 30.9946 12.4988 31.0117 12.5001C31.0131 12.5008 31.0143 12.5008 31.0149 12.5008C31.0201 12.5008 31.0245 12.502 31.0264 12.502H31.027H31.0277C31.0448 12.5046 31.062 12.5072 31.0791 12.5097C31.1084 12.5141 31.1383 12.5173 31.1675 12.5224C31.7144 12.6165 32.2231 12.8563 32.6421 13.2149C32.6465 13.2186 32.6504 13.2225 32.6548 13.2262C32.681 13.2485 32.7063 13.272 32.7318 13.2956C32.7407 13.3039 32.7502 13.3121 32.7598 13.3204C32.7789 13.3388 32.798 13.3586 32.8171 13.3782C32.831 13.3916 32.845 13.405 32.8584 13.4196C32.8691 13.4304 32.8787 13.4419 32.8889 13.4527C32.9098 13.4749 32.9309 13.4972 32.9512 13.52V13.5207C33.0052 13.5817 33.0562 13.6453 33.105 13.7108C33.1102 13.7184 33.1159 13.7254 33.1222 13.733C33.14 13.7578 33.1571 13.7839 33.175 13.8087C33.1833 13.8208 33.1921 13.8335 33.2004 13.8462C33.215 13.8685 33.229 13.8907 33.2436 13.9136C33.2538 13.9301 33.2639 13.946 33.2741 13.9619C33.2862 13.9823 33.297 14.0025 33.3091 14.0223C33.3199 14.042 33.332 14.0618 33.3429 14.0815C33.3524 14.0993 33.3606 14.1171 33.3702 14.1349C33.3817 14.1579 33.3943 14.1807 33.4058 14.2042C33.4128 14.2189 33.4192 14.2341 33.4262 14.2493C33.4389 14.276 33.4516 14.3028 33.4631 14.3295C33.4682 14.3415 33.4726 14.3536 33.4783 14.3657C33.4904 14.3962 33.5032 14.4267 33.5152 14.4579C33.5184 14.4668 33.5216 14.477 33.5254 14.4859C33.5375 14.5196 33.5496 14.5533 33.561 14.5876C33.5636 14.5946 33.5655 14.6016 33.5673 14.6092C33.5795 14.6455 33.5909 14.6823 33.6011 14.7192C33.6024 14.725 33.6037 14.73 33.6048 14.7358C33.6156 14.7746 33.6259 14.8127 33.6347 14.8521C33.636 14.8572 33.6367 14.8623 33.6379 14.8673C33.6468 14.9068 33.6551 14.9468 33.6627 14.9863C33.6639 14.9933 33.6645 14.9997 33.6659 15.006C33.6722 15.0441 33.6792 15.0829 33.6843 15.1218C33.6856 15.1319 33.6862 15.1421 33.6881 15.1516C33.6926 15.1873 33.6964 15.2228 33.7002 15.2585C33.7015 15.2756 33.7027 15.2928 33.7034 15.3099C33.7059 15.3393 33.7084 15.3678 33.7097 15.3964C33.7117 15.4428 33.7128 15.4892 33.7128 15.5363C33.7128 15.5993 33.7103 15.6629 33.7065 15.7264C33.7027 15.7894 33.6969 15.8536 33.6893 15.9172C33.6886 15.9198 33.6881 15.9217 33.6881 15.9242C33.6823 15.9725 33.6746 16.0209 33.6665 16.0679C33.6652 16.0755 33.6633 16.0826 33.662 16.0895C33.6544 16.134 33.6454 16.1779 33.6353 16.2217C33.6353 16.2237 33.6346 16.2255 33.634 16.2268C33.5074 16.7749 33.2315 17.2786 32.8391 17.6798C32.8354 17.6836 32.8321 17.6868 32.8283 17.6906C32.7984 17.7211 32.7673 17.7516 32.7356 17.7809C32.7279 17.7879 32.7203 17.7948 32.712 17.8025C32.6402 17.8674 32.5657 17.9303 32.4876 17.9894C32.155 17.9086 31.8161 17.8679 31.4772 17.8679C30.496 17.8679 29.5372 18.2069 28.7754 18.8211C28.5503 19.003 28.5147 19.3349 28.6965 19.56C28.797 19.6847 28.9459 19.7558 29.106 19.7558C29.2255 19.7558 29.3426 19.7145 29.436 19.6394C30.0198 19.1683 30.7262 18.919 31.4778 18.919C31.7265 18.919 31.9732 18.947 32.2129 19.0029C32.3045 19.0742 32.4202 19.1149 32.5379 19.1149C32.5525 19.1149 32.5671 19.1142 32.5823 19.113C32.7184 19.1619 32.8475 19.2179 32.967 19.2796C32.9696 19.2809 32.9722 19.2821 32.9741 19.2834L32.976 19.284V19.2846L32.9773 19.2853C33.0968 19.3469 33.2112 19.4169 33.3219 19.4926C33.3321 19.4996 33.3429 19.506 33.353 19.513C33.3588 19.5168 33.3638 19.5219 33.3696 19.5256C33.7206 19.7769 34.0207 20.0954 34.249 20.463C34.2884 20.5266 34.3253 20.5914 34.3603 20.6575C34.3672 20.6702 34.373 20.6836 34.3793 20.6969C34.4073 20.751 34.434 20.805 34.4588 20.8597C34.4626 20.8692 34.4664 20.8793 34.4702 20.8883C34.4957 20.9487 34.5205 21.0085 34.5427 21.0701C34.5446 21.0753 34.5459 21.0809 34.5479 21.086C34.5714 21.1516 34.593 21.2171 34.6121 21.2844C34.6127 21.2883 34.6134 21.2921 34.6146 21.2959C34.6337 21.364 34.6509 21.4327 34.6661 21.5019C34.6674 21.5102 34.6686 21.5178 34.67 21.5261C34.6833 21.591 34.6953 21.6571 34.7043 21.7232C34.7075 21.7468 34.7094 21.7702 34.7119 21.7944C34.7182 21.8453 34.7246 21.8962 34.7278 21.9477C34.7335 22.0234 34.7361 22.1003 34.7361 22.1772C34.7367 22.2335 34.7355 22.2889 34.7329 22.3429Z" fill="#FFB100" stroke="#FFB100" stroke-width="0.88573"/>
</svg>
