<svg width="44" height="42" viewBox="0 0 44 42" fill="none" xmlns="http://www.w3.org/2000/svg">
<path d="M17.2002 2.20023C15.7602 2.20023 13.4002 5.00023 12.4002 6.40023H10.0002L8.8002 7.00023L7.0002 9.40023L6.4002 12.4002V14.2002L4.6002 15.4002L3.4002 17.8002L4.6002 21.4002L3.4002 23.2002L2.2002 25.0002V26.8002C2.2002 27.2802 2.6002 28.2002 2.8002 28.6002L3.4002 29.8002L5.8002 31.0002L6.4002 31.6002V34.0002L7.0002 36.4002L10.6002 37.6002H13.0002L15.4002 39.4002L18.4002 40.0002L21.4002 38.8002L23.2002 38.2002L25.0002 40.6002H28.0002L29.2002 39.4002L31.0002 37.0002L31.6002 37.6002L33.4002 38.2002L35.8002 37.0002L37.6002 34.0002L37.0002 31.0002H38.8002L41.2002 29.2002L41.8002 25.6002L40.6002 23.2002L39.4002 21.4002L40.6002 16.6002L37.6002 14.2002L36.4002 13.6002L37.0002 11.8002V9.40023C37.0002 8.92023 36.2002 8.00023 35.8002 7.60023L34.0002 7.00023L31.0002 6.40023L30.4002 4.60023L29.2002 2.80023L26.8002 2.20023H25.0002L23.2002 3.40023L22.0002 4.60023C21.0002 3.80023 18.6402 2.20023 17.2002 2.20023Z" fill="#FEF1CF"/>
<path d="M43 26.1128C43 24.9848 42.678 23.9231 42.1223 23.0281C41.7567 22.4399 41.2899 21.9235 40.7463 21.4997C41.2696 20.7638 41.6247 19.8906 41.7431 18.9352C41.7726 18.7015 41.7861 18.4685 41.7861 18.2378C41.7861 16.8368 41.2636 15.5294 40.3881 14.5318V14.5326C39.7548 13.8088 38.9283 13.2447 37.9812 12.9212C38.1811 12.3134 38.2874 11.6801 38.2882 11.0414V11.0377V11.0369C38.2874 10.3643 38.1706 9.68867 37.9293 9.04398C37.6887 8.39848 37.3238 7.78398 36.8352 7.23807C36.2592 6.59264 35.5669 6.10177 34.8197 5.77455C34.0816 5.45102 33.2891 5.28597 32.4943 5.2822C32.4934 5.2822 32.4844 5.2822 32.4709 5.2822V5.28137C32.4687 5.2822 32.4482 5.28064 32.4113 5.28293C32.3178 5.28359 32.2244 5.28671 32.1309 5.29122C31.8579 4.3034 31.3323 3.4182 30.6289 2.71552C30.1003 2.18617 29.4691 1.75789 28.7679 1.46077C28.081 1.16972 27.3247 1.00763 26.5376 1.00082C26.5368 1.00082 26.5225 1.00082 26.4976 1H26.496H26.4885H26.4877H26.4869H26.4861C26.4855 1 26.4846 1 26.4846 1C26.4741 1 26.4582 1 26.4349 1.00082C25.6477 1.00829 24.8929 1.17046 24.206 1.46077C23.504 1.7578 22.8736 2.18609 22.3443 2.71552H22.3451C22.2244 2.83611 22.1098 2.96284 21.9998 3.09319C21.8904 2.96276 21.7758 2.83611 21.6551 2.71552C21.1265 2.18617 20.4955 1.75789 19.7943 1.46077C19.1073 1.16972 18.3518 1.00763 17.5638 1.00082C17.5638 1.00082 17.5487 1.00082 17.5246 1H17.5231H17.5156H17.514H17.5133C17.5133 1 17.5133 1 17.5126 1C17.5117 1 17.5117 1 17.511 1C17.5012 1 17.4846 1 17.4619 1.00082C16.6748 1.00829 15.9193 1.17046 15.2323 1.46077C14.5311 1.7578 13.9 2.18609 13.3714 2.71552C12.6679 3.4182 12.143 4.30266 11.8694 5.29122C11.7668 5.28515 11.6643 5.2822 11.5609 5.2822V5.28137C11.5609 5.28137 11.5534 5.28137 11.5428 5.28064C11.5406 5.28137 11.5225 5.28064 11.4885 5.2822C10.6998 5.28818 9.91335 5.45257 9.18048 5.77381C8.43318 6.10103 7.741 6.59199 7.16498 7.23815C6.66811 7.79309 6.29487 8.42276 6.04746 9.08475C5.79948 9.74675 5.67652 10.4428 5.67652 11.1357C5.67652 11.1357 5.67652 11.147 5.67652 11.1651H5.67726C5.68038 11.7352 5.76848 12.3029 5.9359 12.8503C5.2452 13.1595 4.62537 13.5968 4.11046 14.133V14.1314C3.6022 14.6592 3.19278 15.2813 2.90928 15.969C2.62578 16.6566 2.47041 17.4107 2.47041 18.1941C2.47041 18.2635 2.47197 18.3336 2.47418 18.403C2.50142 19.1789 2.68082 19.9193 2.98163 20.5896C3.10533 20.8649 3.25012 21.1281 3.41295 21.3791C2.80141 21.824 2.27813 22.3835 1.87782 23.0282C1.32197 23.9231 1 24.9848 1 26.1128C1 26.9189 1.16439 27.6917 1.46069 28.3938C1.7578 29.0958 2.18683 29.7261 2.71618 30.2555H2.71544C3.24323 30.7826 3.87142 31.2101 4.57033 31.5071C4.85908 31.6292 5.15997 31.7281 5.47062 31.8035C5.35529 32.2657 5.29647 32.7377 5.29565 33.2083H5.29491V33.2211V33.2217V33.2233C5.29491 34.0287 5.46078 34.8331 5.78956 35.5819C6.11826 36.3299 6.61061 37.0229 7.25915 37.5997C7.81409 38.0935 8.4422 38.4653 9.10272 38.7119C9.75273 38.954 10.4351 39.0761 11.1159 39.0791C11.1265 39.0805 11.1355 39.0805 11.1432 39.0805C11.1446 39.0805 11.1462 39.0805 11.1476 39.0805H11.1492C11.1492 39.0805 11.1492 39.0805 11.1499 39.0805H11.165V39.0799C11.6973 39.0791 12.2289 39.0037 12.7431 38.8574C12.9317 39.1228 13.1412 39.3724 13.3713 39.6023V39.6016C13.8999 40.1317 14.5309 40.56 15.2322 40.8571C15.9176 41.1467 16.6717 41.3095 17.4566 41.3163C17.4732 41.317 17.4883 41.3179 17.5124 41.3179H17.5131C17.5139 41.3179 17.5139 41.3179 17.5139 41.3179C17.5313 41.3179 17.5395 41.317 17.5395 41.317C18.3357 41.3141 19.0995 41.1504 19.794 40.8571C20.4953 40.56 21.1264 40.1318 21.6549 39.6023C21.7756 39.4818 21.8902 39.355 21.9995 39.2239C22.1096 39.355 22.2242 39.4818 22.3449 39.6023C22.8734 40.1317 23.5045 40.56 24.2057 40.8571C24.8904 41.1467 25.6444 41.3095 26.4301 41.3163C26.4467 41.317 26.4618 41.3179 26.4851 41.3179C26.4851 41.3179 26.4851 41.3179 26.4858 41.3179C26.4866 41.3179 26.4866 41.3179 26.4866 41.3179C26.4874 41.3179 26.4874 41.3179 26.4874 41.3179C26.5039 41.3179 26.5122 41.317 26.5122 41.317C27.3085 41.3141 28.0731 41.1504 28.7675 40.8571C29.4687 40.56 30.0998 40.1318 30.6285 39.6016V39.6023C30.8584 39.3724 31.068 39.1228 31.2566 38.8574C31.7761 39.0044 32.3121 39.0805 32.8505 39.0805C32.8505 39.0805 32.8513 39.0805 32.8521 39.0805C32.8551 39.0805 32.8558 39.0805 32.8581 39.0805C32.8723 39.0805 32.8807 39.0799 32.8814 39.0799C33.5623 39.0761 34.2454 38.9546 34.8969 38.7111C35.5574 38.4653 36.1855 38.0935 36.7404 37.5997C37.3889 37.0229 37.8812 36.3299 38.21 35.5819C38.5358 34.8384 38.7016 34.0414 38.7039 33.2421H38.7047C38.7047 33.2301 38.7047 33.2247 38.7047 33.2247V33.2217C38.7047 32.7459 38.6451 32.2701 38.5291 31.8034C38.8396 31.728 39.1405 31.6292 39.4293 31.507C40.1283 31.21 40.7564 30.7824 41.2842 30.2554H41.2835C41.8128 29.7261 42.2419 29.0957 42.539 28.3937C42.8356 27.6917 43 26.9189 43 26.1128ZM21.3769 20.6302C20.947 20.4832 20.5007 20.4086 20.0452 20.4086C19.6222 20.4086 19.203 20.4727 18.7966 20.5994L18.7808 20.6055C18.2235 20.7992 17.6806 20.8965 17.1664 20.8965C16.2586 20.8965 15.4706 20.5957 14.8877 20.0286C14.3606 19.5152 14.059 18.8124 14.059 18.0999C14.0599 17.465 14.2928 16.8497 14.7324 16.3219C14.9526 16.058 14.9172 15.6644 14.654 15.4442C14.5425 15.3507 14.4007 15.2994 14.2544 15.2994C14.0697 15.2994 13.8947 15.3809 13.7764 15.5226C13.1452 16.2774 12.812 17.1687 12.8127 18.0992C12.8127 19.1457 13.2515 20.1742 14.0169 20.9207C14.8237 21.7094 15.9412 22.1438 17.168 22.1438C17.8164 22.1438 18.4936 22.0231 19.1722 21.7886C19.4557 21.6997 19.7491 21.6552 20.0454 21.6552C20.5077 21.6552 20.9653 21.7676 21.3771 21.9817V27.3587H18.0744C17.7305 27.3587 17.4516 27.6384 17.4516 27.9823C17.4516 28.3253 17.7305 28.6051 18.0744 28.6051H21.3771V35.4599C21.3771 35.9742 21.2767 36.4733 21.0867 36.9348C21.0845 36.9394 21.0822 36.9423 21.0799 36.9469C20.9336 37.299 20.7361 37.624 20.4978 37.9135C20.4925 37.921 20.4865 37.9271 20.4813 37.9331C20.4466 37.9746 20.412 38.0153 20.3765 38.0545C20.3448 38.0899 20.3116 38.1232 20.2784 38.157C20.2678 38.1684 20.2573 38.1804 20.246 38.1918L20.2452 38.1925C20.2377 38.2 20.2301 38.2061 20.2225 38.2136C20.1856 38.2506 20.1472 38.2875 20.1087 38.3222C20.0869 38.3419 20.0649 38.3606 20.0431 38.3795C20.0182 38.4013 19.9934 38.4233 19.9678 38.4443C19.93 38.4752 19.8916 38.5046 19.8523 38.5348C19.8426 38.5423 19.8328 38.5499 19.823 38.5574C19.5756 38.7429 19.3049 38.8982 19.0177 39.0204C18.9031 39.0686 18.7862 39.1109 18.6671 39.1485C18.6648 39.1494 18.664 39.1494 18.6625 39.1501C18.6105 39.1659 18.5585 39.181 18.5056 39.1946C18.4951 39.1975 18.4853 39.2006 18.4754 39.2028C18.4303 39.2149 18.385 39.2239 18.3398 39.2344C18.3216 39.2382 18.3043 39.2428 18.2862 39.2466C18.2477 39.254 18.2085 39.2602 18.1694 39.2677C18.1444 39.2714 18.1203 39.2767 18.0947 39.2797C18.0601 39.2858 18.0247 39.2888 17.9899 39.2933C17.9613 39.2971 17.9318 39.3009 17.9032 39.3039C17.8671 39.3077 17.8317 39.3099 17.7954 39.3122C17.7668 39.3145 17.7381 39.3175 17.7094 39.319C17.6528 39.322 17.5956 39.3228 17.5382 39.3228C17.5299 39.3228 17.5217 39.3235 17.5134 39.3235C17.5043 39.3235 17.4945 39.3228 17.4847 39.3228C17.4289 39.3228 17.3731 39.322 17.3181 39.319C17.288 39.3175 17.2585 39.3145 17.2283 39.3122C17.1944 39.3099 17.159 39.3077 17.1242 39.3039C17.0941 39.3009 17.0647 39.2964 17.0345 39.2933C17.0006 39.2889 16.9659 39.2851 16.9319 39.2797C16.9064 39.2767 16.8807 39.2714 16.8551 39.2669C16.8166 39.2602 16.779 39.2541 16.7412 39.2466C16.7224 39.2428 16.7035 39.2376 16.6846 39.2338C16.6402 39.2239 16.5956 39.2142 16.5519 39.2028C16.5414 39.1998 16.5301 39.1968 16.5195 39.1937C16.4675 39.1801 16.4163 39.1659 16.3657 39.15C16.3627 39.1493 16.3597 39.1485 16.3575 39.1477C16.2391 39.1108 16.123 39.0686 16.0098 39.0203C15.7217 38.8982 15.4519 38.7428 15.2038 38.5574C15.1933 38.5498 15.1834 38.5408 15.1729 38.5331C15.1344 38.5038 15.0967 38.4751 15.0597 38.4442C15.0319 38.4208 15.0047 38.3967 14.9768 38.3734C14.9579 38.3568 14.9376 38.3401 14.9187 38.3228C14.8727 38.2806 14.8268 38.2369 14.7815 38.1923C14.7808 38.1908 14.7799 38.1901 14.7792 38.1894C14.7144 38.1245 14.6518 38.0567 14.5915 37.9865C14.5817 37.9744 14.5712 37.9632 14.5613 37.9511C14.3676 37.7204 14.1987 37.467 14.0613 37.1941C14.0591 37.1895 14.0554 37.1842 14.0523 37.1789C13.79 36.6511 13.6497 36.066 13.6497 35.4598C13.6497 34.9983 13.753 34.4969 13.9416 34.0483C14.1497 33.5528 14.4573 33.1252 14.8313 32.8131C14.9594 32.7068 15.0379 32.5568 15.0529 32.3909C15.0681 32.2249 15.0175 32.0636 14.9112 31.9355C14.7928 31.7937 14.6179 31.7123 14.4325 31.7123C14.2869 31.7123 14.1451 31.7636 14.0335 31.8564C13.5065 32.2959 13.0774 32.8878 12.7917 33.5672C12.5384 34.1727 12.4041 34.8271 12.4033 35.4599C12.4033 35.9168 12.4644 36.3692 12.5843 36.8088C12.5178 36.8352 12.45 36.8608 12.3814 36.8834C12.364 36.8894 12.3452 36.8956 12.3279 36.9008C12.285 36.9144 12.2427 36.9272 12.1997 36.9393C12.1727 36.9468 12.1454 36.9544 12.1176 36.9619C12.0837 36.9702 12.0497 36.9785 12.0151 36.986C11.9833 36.9944 11.9517 37.0011 11.9201 37.0072C11.8892 37.014 11.8582 37.0193 11.8266 37.0252C11.7934 37.0313 11.7603 37.0366 11.7262 37.0418C11.6946 37.0464 11.6629 37.0508 11.6313 37.0546C11.5996 37.0584 11.5672 37.0628 11.5355 37.0667C11.497 37.0696 11.4593 37.0727 11.4217 37.075C11.3952 37.0773 11.3697 37.0795 11.3432 37.081C11.2792 37.0841 11.2143 37.0863 11.1495 37.0863C10.204 37.0863 9.29229 36.7387 8.58502 36.1099C7.76159 35.377 7.29032 34.3243 7.28958 33.2219C7.28958 33.1638 7.2904 33.1065 7.29336 33.0493C7.30771 32.719 7.36579 32.3902 7.46529 32.0705C7.46972 32.0562 7.4735 32.0411 7.47891 32.026C7.48039 32.0192 7.48342 32.0124 7.48564 32.0064C7.50155 31.9582 7.51812 31.9091 7.53625 31.8609C7.53699 31.8586 7.53773 31.8572 7.5392 31.8548C7.56406 31.7885 7.59121 31.7229 7.62066 31.6566C7.6237 31.6506 7.62673 31.6445 7.62895 31.6385C7.65979 31.5706 7.69227 31.5035 7.72771 31.4356C7.72853 31.4341 7.72927 31.4333 7.72927 31.4333C7.87479 31.1544 8.05428 30.8935 8.26608 30.6552C8.49454 30.3981 8.47116 30.0038 8.21407 29.7753C8.10021 29.6734 7.95321 29.6177 7.8008 29.6177C7.62287 29.6177 7.4525 29.6947 7.33486 29.8274C7.29795 29.8681 7.26251 29.9104 7.22707 29.9526C7.17047 29.9624 7.13504 29.9677 7.10567 29.9706C7.05661 29.9752 6.99402 29.9767 6.85826 29.9767C6.85523 29.9767 6.85227 29.9767 6.84924 29.9767C6.84858 29.9767 6.84776 29.9767 6.84702 29.9767C6.78066 29.9767 6.71504 29.9744 6.64941 29.9715C6.64572 29.9706 6.64113 29.9706 6.63735 29.9699C6.57632 29.9669 6.51595 29.9624 6.45639 29.9556C6.44737 29.9556 6.43752 29.9533 6.4285 29.9526C6.37346 29.9466 6.31915 29.9398 6.26485 29.9314C6.255 29.93 6.24598 29.9284 6.23696 29.9269C6.18191 29.9178 6.12761 29.9088 6.07404 29.8976C6.06805 29.896 6.06272 29.8945 6.05673 29.893C5.99866 29.8809 5.94205 29.8681 5.88554 29.8538C5.88471 29.8531 5.88398 29.8531 5.88324 29.8531C5.69998 29.8055 5.52205 29.7445 5.34938 29.6713C5.06293 29.5499 4.7937 29.3938 4.54711 29.2098C4.53653 29.2023 4.52677 29.194 4.51619 29.1857C4.47771 29.1563 4.44006 29.1276 4.4038 29.0968C4.37673 29.0749 4.35032 29.0515 4.32391 29.0281C4.30356 29.0115 4.28322 28.9935 4.26361 28.9761C4.21686 28.9332 4.17092 28.8901 4.12637 28.8457C4.08109 28.8004 4.03737 28.7536 3.99447 28.7069C3.98536 28.6963 3.97634 28.6857 3.9665 28.6752C3.93483 28.639 3.90317 28.6028 3.87298 28.5666C3.84739 28.5349 3.82327 28.5033 3.79841 28.4716C3.78562 28.455 3.772 28.4385 3.75994 28.4218C3.72516 28.3759 3.69276 28.3299 3.66036 28.2824C3.65806 28.2786 3.65593 28.2756 3.65363 28.2725C3.51483 28.0667 3.39498 27.8473 3.2977 27.6173C3.22682 27.4484 3.16727 27.2742 3.12051 27.0947C3.11903 27.0887 3.11673 27.0827 3.11526 27.0767C3.10246 27.0269 3.09188 26.9771 3.08056 26.9258C3.07761 26.9138 3.07449 26.901 3.07219 26.8873C3.06317 26.8429 3.05562 26.7976 3.04807 26.7523C3.04504 26.7334 3.04053 26.7154 3.03823 26.6965C3.03216 26.6543 3.02691 26.612 3.02166 26.5699C3.01945 26.5472 3.01641 26.5262 3.01411 26.5036C3.00968 26.4598 3.00665 26.4161 3.00427 26.3723C3.00279 26.3513 2.99984 26.3302 2.99902 26.309C2.99607 26.2449 2.99451 26.1792 2.99451 26.113C2.99451 26.0217 2.99746 25.9305 3.00427 25.8408C3.00804 25.7798 3.01559 25.7194 3.02314 25.659C3.02625 25.6304 3.02847 25.6025 3.03224 25.5745C3.04274 25.4953 3.0571 25.4169 3.07293 25.3393C3.07523 25.3302 3.07596 25.3212 3.07752 25.3122C3.09557 25.2292 3.11591 25.1463 3.13929 25.0656C3.14011 25.0618 3.14085 25.0572 3.14159 25.0543C3.16489 24.9735 3.19048 24.8945 3.21845 24.8152C3.22067 24.81 3.22149 24.8054 3.2237 24.8001C3.25012 24.7255 3.2803 24.6531 3.31115 24.5807C3.31574 24.5709 3.3187 24.5611 3.32321 24.5521C3.35339 24.4827 3.38727 24.4148 3.42205 24.3477C3.42812 24.3356 3.43337 24.3228 3.43936 24.3107C3.48087 24.2324 3.52533 24.1555 3.57209 24.0801C3.61811 24.0062 3.66643 23.9337 3.71614 23.8637C3.96502 23.5184 4.26886 23.216 4.61495 22.9686C4.62176 22.9634 4.62775 22.9581 4.63456 22.9536C4.64662 22.9453 4.65941 22.9378 4.67147 22.9295C4.80264 22.8398 4.9384 22.7567 5.08015 22.6836L5.08171 22.6821C5.08614 22.6799 5.09073 22.6776 5.09451 22.676C5.142 22.6512 5.19024 22.6285 5.23773 22.6067C5.26415 22.5946 5.28974 22.5826 5.31698 22.5705C5.31919 22.5705 5.32141 22.5682 5.3237 22.5675C5.80785 22.3571 6.32202 22.2493 6.85818 22.2493C7.73362 22.2493 8.55779 22.5351 9.24316 23.0757C9.40074 23.2484 9.90671 23.7792 10.6622 24.3138C11.1893 24.6864 11.7308 24.9849 12.2728 25.1998C12.965 25.475 13.6588 25.6145 14.3359 25.6145C14.679 25.6145 14.9588 25.3348 14.9588 24.9909C14.9588 24.6471 14.679 24.3681 14.3359 24.3681C13.8179 24.3681 13.2788 24.2581 12.7321 24.0416C11.9418 23.7279 11.2761 23.2431 10.8569 22.8917C10.6187 22.6912 10.4331 22.5132 10.32 22.3993C10.2597 22.3376 10.2129 22.2885 10.182 22.2545L10.1429 22.2108L10.121 22.186C10.1111 22.1746 10.1006 22.1641 10.0885 22.155L10.0629 22.1331C9.15957 21.4048 8.02253 21.0028 6.85826 21.0028C6.50397 21.0028 6.14804 21.0406 5.79891 21.1152C5.72049 21.0474 5.64732 20.9757 5.5757 20.9026C5.54929 20.8769 5.5237 20.8506 5.49802 20.8233C5.4762 20.7992 5.45512 20.7751 5.43313 20.751C5.41427 20.7292 5.394 20.7065 5.37505 20.6839C5.33437 20.6363 5.29516 20.5873 5.25742 20.5375C5.24988 20.5285 5.2438 20.5195 5.23708 20.5104C5.20459 20.4675 5.17301 20.4237 5.14291 20.3792C5.13692 20.3709 5.13159 20.3627 5.12552 20.3536C5.09467 20.3077 5.06448 20.2617 5.03504 20.2134C5.03126 20.2074 5.02749 20.2014 5.02445 20.1953C4.99361 20.1448 4.96342 20.0935 4.93553 20.0415C4.93332 20.0377 4.93176 20.0347 4.92954 20.031C4.90009 19.9752 4.87146 19.9194 4.84357 19.8628C4.84357 19.8628 4.84357 19.8613 4.84275 19.8606C4.67459 19.5085 4.55925 19.1306 4.50339 18.7401C4.50273 18.7363 4.50191 18.7325 4.50191 18.7325C4.49355 18.6737 4.4883 18.6164 4.48231 18.5599C4.48149 18.5501 4.48009 18.5403 4.47927 18.5305C4.47468 18.4754 4.47173 18.4204 4.46869 18.3646C4.46869 18.354 4.46721 18.3435 4.46721 18.3329V18.3321C4.46566 18.2861 4.46492 18.2401 4.46492 18.1941C4.46492 18.13 4.46648 18.0667 4.46951 18.0034C4.47033 17.9822 4.47255 17.9604 4.47411 17.9393C4.47714 17.8978 4.47936 17.8563 4.48313 17.8156C4.48543 17.79 4.48994 17.7659 4.49215 17.7402C4.49675 17.7025 4.50118 17.6656 4.50643 17.6286C4.50954 17.6044 4.51397 17.5803 4.51775 17.5577C4.52455 17.5193 4.53054 17.4808 4.53809 17.4431C4.54178 17.4227 4.54711 17.4024 4.55163 17.3828C4.55999 17.3413 4.56902 17.3005 4.57878 17.2598C4.58255 17.2448 4.58706 17.2305 4.59084 17.2154C4.60289 17.1701 4.61504 17.1241 4.62857 17.0789C4.63161 17.0706 4.63464 17.0608 4.63759 17.0518C4.65343 17.0012 4.66926 16.9515 4.6873 16.9017C4.68804 16.8979 4.69034 16.8942 4.69108 16.8904C4.71068 16.8361 4.73111 16.7818 4.75367 16.7283L4.75441 16.7268C4.80043 16.6137 4.85243 16.5043 4.90895 16.3965C4.90895 16.3965 4.90895 16.3965 4.90977 16.3957C4.93766 16.3422 4.96703 16.2901 4.99722 16.2389C4.99943 16.2344 5.00173 16.2306 5.00403 16.2268C5.03266 16.1793 5.06211 16.1317 5.09221 16.0851C5.09902 16.0753 5.10657 16.0647 5.11338 16.0542C5.13979 16.015 5.16612 15.9758 5.19409 15.9373C5.20993 15.9147 5.22797 15.8929 5.24463 15.871C5.26423 15.8454 5.2831 15.8189 5.30344 15.7933C5.33658 15.7518 5.37054 15.7111 5.40524 15.6711C5.41049 15.6651 5.41509 15.659 5.4196 15.6537C5.46102 15.607 5.50327 15.561 5.54625 15.5158C5.54781 15.5149 5.54855 15.5135 5.54921 15.5127C5.60581 15.4546 5.66389 15.3989 5.72344 15.3446C5.73927 15.3303 5.75511 15.3159 5.77168 15.3017C5.89833 15.19 6.0318 15.0853 6.17289 14.9902C6.18191 14.9849 6.19094 14.9789 6.19996 14.9729C6.35 14.8734 6.50758 14.7844 6.67197 14.7059C6.67353 14.7052 6.675 14.7044 6.67574 14.7044C6.92988 14.5838 7.19976 14.4903 7.48104 14.4276C7.48334 14.4269 7.48547 14.4261 7.48785 14.4254C7.71705 14.3749 7.95305 14.3439 8.19209 14.3357C8.23581 14.3334 8.2788 14.3334 8.33007 14.3334H8.3308C8.52989 14.3334 8.72972 14.3485 8.92496 14.3786C8.95736 14.3832 8.98902 14.3862 9.02069 14.3862C9.3306 14.3862 9.58851 14.1637 9.63674 13.8576C9.68875 13.5183 9.45496 13.1994 9.11568 13.1465C8.8563 13.1067 8.59314 13.0862 8.33072 13.0862C8.28774 13.0862 8.24402 13.0871 8.20103 13.0885C8.17314 13.041 8.14755 12.992 8.12261 12.9437C8.09472 12.8918 8.0683 12.8397 8.04345 12.7869C8.03443 12.7673 8.0254 12.7484 8.01704 12.7281C7.99136 12.6716 7.9665 12.6157 7.94386 12.5584C7.93705 12.5411 7.93025 12.523 7.92426 12.5057C7.90162 12.4469 7.88054 12.3881 7.86093 12.3277C7.85486 12.3103 7.84961 12.2915 7.84436 12.2742C7.82631 12.2147 7.80892 12.1558 7.79383 12.0962C7.78776 12.0744 7.78325 12.054 7.778 12.0321C7.7652 11.9755 7.75158 11.919 7.741 11.8618C7.73493 11.8331 7.73116 11.8052 7.72591 11.7773C7.71754 11.726 7.70934 11.6755 7.70253 11.6242C7.69728 11.5827 7.6935 11.5412 7.68973 11.4989C7.68596 11.4605 7.68145 11.422 7.67915 11.3829C7.6739 11.3021 7.67086 11.2208 7.67086 11.1386V11.137C7.67086 10.2465 7.97766 9.38843 8.53728 8.7015C8.54335 8.69322 8.55007 8.68567 8.5568 8.67812C8.58773 8.64047 8.61939 8.60274 8.65261 8.56574C8.67296 8.5431 8.69412 8.52202 8.71438 8.5002C8.7408 8.47157 8.76721 8.44286 8.79436 8.41571C9.51673 7.68883 10.5045 7.27564 11.536 7.27482C11.5376 7.27482 11.5405 7.27482 11.5427 7.27482C11.6092 7.27564 11.6747 7.27711 11.7411 7.28089C11.7622 7.28236 11.7833 7.28392 11.8037 7.28532C11.8541 7.28909 11.9055 7.29368 11.956 7.29893C11.9748 7.30115 11.9937 7.30344 12.0133 7.30574C12.0796 7.31394 12.1468 7.32379 12.2131 7.33511C12.2138 7.33577 12.2153 7.33576 12.2169 7.33576C12.2877 7.34856 12.3586 7.36374 12.4295 7.38105C13.0373 7.52583 13.6043 7.81696 14.0823 8.23466C14.215 8.38544 14.7895 9.02413 15.5338 9.68399C16.0352 10.1273 16.5125 10.4915 16.9529 10.766C17.2296 10.9379 17.4859 11.0721 17.7354 11.1762C18.031 11.2991 18.3025 11.373 18.5656 11.4016C18.589 11.4047 18.6116 11.4062 18.635 11.4062C18.9532 11.4062 19.2186 11.1679 19.254 10.8512C19.2721 10.6861 19.2254 10.5233 19.1214 10.3935C19.0173 10.2631 18.8687 10.1816 18.7028 10.1635C18.5633 10.1485 18.3945 10.1001 18.2134 10.0247C17.9012 9.8958 17.528 9.67333 17.1337 9.38162C16.5471 8.94801 15.9951 8.42694 15.6354 8.06584C15.4312 7.86068 15.2652 7.68423 15.1627 7.57267C15.1069 7.51164 15.0632 7.46332 15.0337 7.43092L15.0013 7.39327L14.8143 7.55914L14.9923 7.38351L14.9765 7.36538L14.9554 7.34356L14.9365 7.32699C14.5557 6.98697 14.1297 6.70716 13.6675 6.49536C13.6992 6.15222 13.776 5.82204 13.8915 5.51065C13.8952 5.50081 13.899 5.49178 13.9028 5.48202C13.9186 5.43978 13.9352 5.39835 13.9525 5.35684C13.9593 5.34101 13.9668 5.32518 13.9737 5.30927C13.9887 5.27457 14.0038 5.23987 14.0196 5.20673C14.0294 5.18564 14.0399 5.16604 14.0498 5.14561C14.0641 5.11625 14.0784 5.08753 14.0935 5.05825C14.1056 5.03561 14.1191 5.01297 14.132 4.98959C14.1456 4.96473 14.1591 4.93906 14.1742 4.91412C14.1886 4.88845 14.2044 4.86441 14.2195 4.83947C14.2331 4.81765 14.2459 4.79501 14.2603 4.77319C14.2776 4.74612 14.2957 4.71971 14.3138 4.69247C14.3266 4.67361 14.3393 4.65474 14.353 4.63595C14.3733 4.60659 14.3952 4.57714 14.417 4.54769C14.4284 4.53259 14.4389 4.51758 14.4503 4.50241C14.4766 4.46927 14.503 4.43604 14.5294 4.40446C14.5384 4.39388 14.546 4.3833 14.5543 4.3728C14.5867 4.33506 14.6192 4.29889 14.6516 4.26189C14.6562 4.2573 14.6606 4.25205 14.6652 4.24753C14.7028 4.20603 14.7413 4.16534 14.7813 4.12539C14.8266 4.08093 14.8726 4.03721 14.9193 3.99422C14.9329 3.98216 14.9472 3.97084 14.9608 3.95878C14.9932 3.92942 15.0264 3.90071 15.0603 3.87208C15.092 3.8464 15.1252 3.82081 15.1583 3.79595C15.1734 3.78389 15.1893 3.7711 15.2051 3.75896C15.2503 3.72508 15.2971 3.69268 15.3438 3.66019C15.3476 3.65789 15.3506 3.65494 15.3544 3.65338C15.5595 3.51459 15.7789 3.39482 16.0097 3.29753C16.1205 3.25077 16.2351 3.20853 16.3512 3.17235C16.3565 3.17005 16.3611 3.16858 16.3655 3.16702C16.4153 3.15193 16.4658 3.13765 16.5156 3.12412C16.5277 3.12108 16.5398 3.11805 16.5526 3.11427C16.5955 3.10295 16.6393 3.09393 16.6831 3.08409C16.7026 3.08031 16.7215 3.07506 16.7411 3.07129C16.7788 3.06374 16.8165 3.05767 16.855 3.05095C16.8806 3.04652 16.9063 3.0411 16.9319 3.03741C16.9658 3.03208 17.0005 3.02904 17.0344 3.02461C17.0646 3.02084 17.094 3.01625 17.1241 3.01329C17.1589 3.01026 17.195 3.00804 17.2298 3.00575C17.2592 3.00353 17.2879 3.0005 17.318 2.99902C17.3746 2.99607 17.4311 2.99525 17.4884 2.99451C17.4968 2.99451 17.505 2.99451 17.5134 2.99451C17.5231 2.99451 17.5322 2.99451 17.542 2.99525C17.5978 2.99525 17.6536 2.99607 17.7094 2.99902C17.7395 3.0005 17.7697 3.00353 17.7992 3.00575C17.8339 3.00804 17.8685 3.01034 17.9025 3.01329C17.9334 3.01707 17.9636 3.02084 17.9945 3.02461C18.0277 3.02904 18.0616 3.03208 18.0948 3.03741C18.1212 3.0411 18.1476 3.04643 18.1732 3.05168C18.211 3.05767 18.2487 3.06374 18.2856 3.07129C18.3051 3.07506 18.3248 3.08031 18.3452 3.08491C18.3882 3.09393 18.4319 3.10377 18.4749 3.11436C18.4869 3.11813 18.499 3.12116 18.511 3.1242C18.5616 3.13773 18.6113 3.15209 18.6603 3.1671C18.6656 3.16866 18.6701 3.17014 18.6754 3.17243C18.7915 3.20853 18.9054 3.25077 19.0178 3.29761C19.2477 3.39556 19.4671 3.51475 19.673 3.65346C19.6753 3.65502 19.6776 3.65642 19.6806 3.6588C19.7281 3.69112 19.7756 3.72434 19.8223 3.75978C19.8374 3.77036 19.8517 3.78242 19.8668 3.79374C19.9 3.82007 19.9339 3.84575 19.9671 3.8729C19.9996 3.89931 20.0304 3.9272 20.0621 3.95509C20.0772 3.96871 20.0923 3.98069 20.1081 3.9943C20.1541 4.03729 20.2008 4.08101 20.2453 4.12547C20.2906 4.17075 20.3344 4.21751 20.3773 4.26427C20.3954 4.28387 20.4127 4.30504 20.4301 4.3253C20.4535 4.35171 20.4768 4.37813 20.4987 4.40454C20.737 4.69411 20.9338 5.01978 21.0801 5.37112C21.0823 5.37489 21.0847 5.37866 21.0862 5.38326C21.277 5.84468 21.3772 6.34384 21.3772 6.8581V20.6302H21.3769ZM41.0011 26.3089C40.9996 26.33 40.9974 26.3511 40.9958 26.3714C40.9936 26.4159 40.9906 26.4596 40.986 26.5034C40.9838 26.5253 40.9808 26.5463 40.9785 26.5682C40.9732 26.6104 40.9687 26.6542 40.9619 26.6964C40.9597 26.7144 40.9559 26.7325 40.9529 26.7507C40.9454 26.796 40.9371 26.8426 40.928 26.8878C40.9258 26.8999 40.9227 26.912 40.9197 26.9241C40.9091 26.9754 40.8979 27.0266 40.8843 27.0772C40.8835 27.0818 40.882 27.087 40.8805 27.0915C40.8337 27.2725 40.7742 27.4474 40.7026 27.617C40.5804 27.9043 40.4243 28.175 40.2395 28.4223C40.2313 28.4336 40.2214 28.4457 40.2124 28.4577C40.1845 28.494 40.1558 28.5309 40.1264 28.5664C40.1023 28.5965 40.0767 28.6252 40.051 28.6546C40.036 28.672 40.0208 28.6901 40.005 28.7074C39.9627 28.7542 39.919 28.8001 39.8745 28.8446L39.8737 28.8454C39.8669 28.8514 39.8601 28.8575 39.8534 28.8643C39.8157 28.9019 39.7764 28.9397 39.7373 28.9751C39.7169 28.9932 39.6958 29.0113 39.6754 29.0287C39.6498 29.052 39.6234 29.0746 39.5962 29.0973C39.5601 29.1266 39.523 29.1553 39.4862 29.184C39.4749 29.1923 39.4636 29.2014 39.4522 29.2104C39.404 29.2458 39.3549 29.2813 39.3052 29.3152C39.3044 29.3152 39.3044 29.316 39.3037 29.316C39.0993 29.454 38.8807 29.5739 38.6507 29.6719C38.4795 29.7442 38.3024 29.8046 38.1191 29.8521C38.1176 29.8528 38.116 29.8528 38.1146 29.8536C38.058 29.8679 38.0015 29.8808 37.945 29.8928C37.9389 29.8944 37.9322 29.8958 37.9261 29.8974C37.8726 29.9086 37.8175 29.9177 37.7632 29.9268C37.7542 29.9282 37.7452 29.9298 37.7361 29.9313C37.6818 29.9396 37.6268 29.9464 37.5717 29.9524C37.5626 29.9532 37.5536 29.9555 37.5438 29.9555C37.4842 29.9623 37.4239 29.9668 37.3636 29.9697C37.359 29.9705 37.3545 29.9705 37.3508 29.9713C37.2852 29.9743 37.2196 29.9766 37.1532 29.9766C37.1524 29.9766 37.1524 29.9766 37.1517 29.9766C37.1479 29.9766 37.1449 29.9766 37.1418 29.9766C37.0747 29.9766 37.025 29.9766 36.9888 29.9751C36.942 29.9743 36.9209 29.972 36.8869 29.9667C36.8575 29.9622 36.8198 29.9554 36.767 29.9456C36.7338 29.9056 36.6999 29.8664 36.6651 29.8273C36.5475 29.6945 36.3771 29.6176 36.1992 29.6176C36.0469 29.6176 35.8999 29.6734 35.786 29.7752C35.5289 30.0036 35.5055 30.3979 35.734 30.655C35.9459 30.8933 36.1246 31.1535 36.2701 31.431C36.2709 31.4325 36.2716 31.434 36.2723 31.4356C36.3077 31.5034 36.3402 31.5712 36.3711 31.6391C36.3742 31.6444 36.3764 31.6504 36.3787 31.6556C36.4089 31.7228 36.4368 31.7906 36.4624 31.8577C36.4632 31.8584 36.4632 31.86 36.4639 31.8607C36.4684 31.8743 36.4729 31.8871 36.4775 31.9008C36.4926 31.9422 36.5084 31.9844 36.522 32.0267V32.0275C36.6479 32.415 36.7105 32.8193 36.7105 33.2218C36.7098 34.2548 36.295 35.2442 35.5667 35.9672C35.5176 36.0154 35.4672 36.0629 35.4151 36.1098C35.3706 36.149 35.3253 36.1875 35.2793 36.2251C34.5931 36.7808 33.7373 37.0862 32.8506 37.0862C32.7857 37.0862 32.7216 37.084 32.6568 37.0809C32.6312 37.0794 32.6056 37.0772 32.5799 37.0756C32.5414 37.0726 32.503 37.0704 32.4637 37.0666C32.4328 37.0628 32.4026 37.0583 32.3718 37.0553C32.3386 37.0507 32.3047 37.0462 32.2715 37.0417C32.2398 37.0364 32.2081 37.0311 32.1765 37.0251C32.1432 37.019 32.11 37.013 32.0776 37.007C32.0475 37.0002 32.0173 36.9942 31.9879 36.9874C31.951 36.9784 31.914 36.97 31.8771 36.9602C31.8521 36.9534 31.8273 36.9467 31.8031 36.9399C31.7564 36.9271 31.7096 36.9127 31.6636 36.8984C31.6493 36.8931 31.635 36.8893 31.6206 36.8841C31.552 36.8614 31.4835 36.8358 31.4155 36.8086C31.5355 36.3691 31.5965 35.9167 31.5965 35.4597C31.5957 34.9636 31.5105 34.4402 31.3492 33.9463C31.0732 33.1041 30.5952 32.381 29.9663 31.8561C29.6073 31.5568 29.2024 31.3246 28.7621 31.1662C28.2916 30.9973 27.7773 30.9114 27.2344 30.9114C26.8905 30.9114 26.6108 31.1904 26.6108 31.5342C26.6108 31.878 26.8905 32.1569 27.2336 32.1569C27.7561 32.1577 28.2296 32.2626 28.6429 32.4692C29.1782 32.7376 29.6223 33.187 29.9277 33.7707C30.197 34.2834 30.3507 34.8987 30.35 35.4597C30.35 36.0659 30.2098 36.6509 29.9474 37.1788C29.9443 37.1834 29.9413 37.1894 29.9383 37.194C29.8011 37.4669 29.6322 37.721 29.4384 37.9517C29.4286 37.963 29.4188 37.9744 29.4082 37.9857C29.3479 38.0565 29.2845 38.1259 29.219 38.1915C29.2182 38.1915 29.2182 38.1915 29.2182 38.1915V38.1921C29.2106 38.1997 29.2031 38.2058 29.1955 38.2133C29.1578 38.2502 29.1201 38.2872 29.0809 38.3219C29.0598 38.3415 29.0371 38.3603 29.0153 38.3792C28.9905 38.401 28.9663 38.423 28.9407 38.444C28.9022 38.4749 28.8637 38.5043 28.8253 38.5345C28.8155 38.542 28.8057 38.5496 28.796 38.5571C28.5479 38.7426 28.2779 38.8979 27.9899 39.0201C27.8752 39.0683 27.7584 39.1106 27.6393 39.1482C27.6378 39.149 27.6363 39.149 27.6347 39.1498C27.5835 39.1656 27.5307 39.1807 27.4779 39.1942C27.468 39.1972 27.4583 39.2002 27.4484 39.2024C27.4032 39.2146 27.358 39.2236 27.3127 39.2341C27.2946 39.2379 27.2766 39.2425 27.2592 39.2462C27.22 39.2537 27.1808 39.2599 27.1423 39.2673C27.1174 39.2711 27.0926 39.2764 27.0677 39.2794C27.0329 39.2855 26.9983 39.2885 26.9629 39.293C26.9335 39.2968 26.9048 39.3006 26.8754 39.3036C26.84 39.3074 26.8046 39.3096 26.7685 39.3119C26.7398 39.3142 26.7111 39.3172 26.6818 39.3187C26.6252 39.3216 26.5686 39.3225 26.5113 39.3225C26.5031 39.3225 26.4948 39.3232 26.4865 39.3232C26.4766 39.3232 26.4676 39.3225 26.4578 39.3225C26.402 39.3225 26.3454 39.3216 26.2904 39.3187C26.261 39.3172 26.2308 39.3142 26.2015 39.3119C26.1669 39.3096 26.1321 39.3074 26.0974 39.3036C26.0673 39.3006 26.0371 39.296 26.0076 39.293C25.9729 39.2886 25.939 39.2848 25.9051 39.2794C25.8795 39.2764 25.8538 39.2711 25.8282 39.2666C25.7898 39.2599 25.7519 39.2538 25.7135 39.2462C25.6946 39.2425 25.6766 39.2372 25.6577 39.2335C25.6132 39.2236 25.5687 39.2138 25.525 39.2024C25.5136 39.1995 25.5031 39.1965 25.4926 39.1934C25.4406 39.1798 25.3885 39.1655 25.338 39.1497C25.3357 39.149 25.3328 39.1481 25.3305 39.1474C25.2114 39.1105 25.0959 39.0682 24.9821 39.02C24.6948 38.8979 24.4241 38.7425 24.1768 38.557C24.1662 38.5495 24.1557 38.5405 24.1451 38.5328C24.1075 38.5035 24.069 38.4747 24.032 38.4439C24.0041 38.4205 23.977 38.3964 23.9498 38.373C23.9309 38.3565 23.9106 38.3398 23.8917 38.3225C23.8449 38.2802 23.7989 38.2365 23.7544 38.192C23.7091 38.1467 23.6655 38.1008 23.6224 38.0533C23.5976 38.0262 23.5734 37.9967 23.5493 37.9689C23.5335 37.95 23.5168 37.9311 23.5011 37.913C23.2628 37.6234 23.066 37.2977 22.9197 36.9464C22.9175 36.9418 22.9151 36.9389 22.9129 36.9343C22.7229 36.4729 22.6226 35.9737 22.6226 35.4594V20.0173C23.4196 20.0474 24.1156 20.1394 24.6924 20.2902C25.2451 20.4334 25.6922 20.628 26.0579 20.8829C26.3324 21.0744 26.5549 21.2961 26.7403 21.5623C27.0073 21.9445 27.1973 22.4226 27.3557 23.1118C27.4085 23.3395 27.4538 23.5687 27.5012 23.8115C27.5456 24.0363 27.5917 24.27 27.6436 24.4999C27.7432 24.9379 27.8442 25.2683 27.9709 25.5729C28.0915 25.8639 28.231 26.1173 28.3984 26.3458C28.6834 26.7386 29.0522 27.0568 29.4948 27.2921C29.9668 27.5439 30.521 27.7082 31.1898 27.7942C31.217 27.798 31.2434 27.8003 31.2705 27.8003C31.5819 27.8003 31.8474 27.5665 31.8873 27.2558C31.9092 27.0914 31.8647 26.927 31.763 26.7959C31.6612 26.6639 31.5141 26.5802 31.3497 26.5583C30.751 26.4814 30.2857 26.3313 29.9277 26.1021C29.6675 25.9346 29.4692 25.7311 29.3048 25.4612C29.1766 25.2501 29.0695 24.9951 28.9768 24.68C28.8773 24.3459 28.8042 23.9757 28.7273 23.5836C28.6828 23.3581 28.6368 23.1244 28.5833 22.8884C28.4891 22.4723 28.3473 21.9255 28.0842 21.3931C27.8843 20.9905 27.6317 20.633 27.3316 20.3307C26.8242 19.8172 26.1455 19.4273 25.3154 19.1711C24.5628 18.9396 23.6807 18.8076 22.6228 18.7714V14.2728H26.2368C26.5807 14.2728 26.8604 13.9923 26.8604 13.6492C26.8604 13.3054 26.5807 13.0257 26.2368 13.0257H22.6228V6.85777C22.6228 6.34352 22.7231 5.84436 22.9131 5.38293C22.9153 5.37834 22.9177 5.37456 22.9199 5.37079C23.0662 5.01937 23.263 4.6937 23.5013 4.40421C23.514 4.38904 23.5277 4.37403 23.5405 4.35893C23.5676 4.32727 23.5948 4.29478 23.6234 4.2632C23.6565 4.22621 23.6905 4.19151 23.7251 4.15607C23.735 4.14623 23.744 4.13573 23.7546 4.12506C23.7991 4.07995 23.8458 4.03614 23.8925 3.99389C23.9062 3.98184 23.9197 3.97052 23.9333 3.95846C23.9665 3.92909 23.9996 3.90038 24.0328 3.87175C24.0653 3.84607 24.0977 3.82048 24.1308 3.79562C24.1466 3.78357 24.1618 3.77077 24.1775 3.75863C24.2235 3.72475 24.2695 3.69235 24.3171 3.65986C24.3207 3.65757 24.3238 3.65461 24.3268 3.65305C24.5327 3.51426 24.7521 3.39449 24.9821 3.2972C25.0936 3.25045 25.2082 3.2082 25.3243 3.17202C25.3296 3.16973 25.3342 3.16825 25.3395 3.16669C25.3877 3.1516 25.4383 3.13732 25.4887 3.12379C25.5008 3.12075 25.5129 3.11772 25.525 3.11395C25.5687 3.10262 25.6124 3.0936 25.6561 3.08376C25.675 3.07998 25.6946 3.07473 25.7134 3.07096C25.7519 3.06341 25.7903 3.05734 25.8281 3.05062C25.8537 3.04619 25.8793 3.04077 25.905 3.03708C25.9389 3.03175 25.9729 3.02871 26.0076 3.02429C26.037 3.02051 26.0672 3.01592 26.0973 3.01296C26.132 3.00993 26.1674 3.00771 26.2029 3.00542C26.2323 3.0032 26.2609 3.00017 26.2903 2.99869C26.3469 2.99574 26.4042 2.99492 26.4615 2.99418C26.4698 2.99418 26.4781 2.99418 26.4864 2.99418C26.4954 2.99418 26.5052 2.99418 26.515 2.99492C26.5708 2.99492 26.6266 2.99574 26.6817 2.99869C26.7118 3.00017 26.742 3.0032 26.7721 3.00542C26.8069 3.00771 26.8415 3.01001 26.8754 3.01296C26.9056 3.01674 26.9365 3.02051 26.9674 3.02429C27.0005 3.02871 27.0345 3.03175 27.0669 3.03708C27.094 3.04077 27.1197 3.04611 27.1461 3.05136C27.1831 3.05734 27.2207 3.06341 27.2576 3.07096C27.278 3.07473 27.2977 3.07998 27.3172 3.08458C27.3602 3.0936 27.4039 3.10345 27.4469 3.11403C27.4597 3.1178 27.4717 3.12084 27.4838 3.12387C27.5336 3.13741 27.5841 3.15176 27.6331 3.16677C27.6376 3.16833 27.6429 3.16981 27.6474 3.17211C27.7643 3.2082 27.8789 3.25045 27.9897 3.29728C28.2204 3.39523 28.4399 3.51442 28.6457 3.65314C28.6479 3.6547 28.6502 3.65609 28.6525 3.65847C28.7007 3.69079 28.7482 3.72401 28.7951 3.75945C28.8093 3.77003 28.8244 3.78209 28.8387 3.79341C28.8726 3.81974 28.9066 3.84542 28.939 3.87257C28.9714 3.89898 29.0031 3.92687 29.0348 3.95477C29.0498 3.96838 29.0656 3.98036 29.08 3.99398C29.1268 4.03696 29.1727 4.08068 29.218 4.12514C29.258 4.16518 29.2964 4.20586 29.3349 4.24729C29.3356 4.24803 29.3356 4.24885 29.3364 4.24959C29.3734 4.28945 29.4096 4.33096 29.4443 4.37247C29.4517 4.38149 29.4585 4.39052 29.4653 4.3988C29.494 4.43276 29.5219 4.46746 29.549 4.50216C29.5603 4.51725 29.5702 4.53235 29.5814 4.54662C29.6032 4.57607 29.6252 4.60544 29.6463 4.63562C29.6599 4.65449 29.6727 4.6741 29.6855 4.69288C29.7036 4.7193 29.7218 4.74571 29.739 4.77278C29.7533 4.7946 29.7669 4.81724 29.7805 4.83988C29.7956 4.864 29.8107 4.88894 29.825 4.91379C29.8401 4.93873 29.8536 4.96432 29.8679 4.99066C29.8807 5.01264 29.8935 5.0352 29.9057 5.05784C29.9208 5.08721 29.935 5.11739 29.9501 5.14676C29.96 5.16637 29.9698 5.18597 29.9796 5.20632C29.9954 5.24028 30.0106 5.27498 30.0256 5.31041C30.0324 5.32543 30.04 5.3406 30.0467 5.35709C30.0641 5.39786 30.0807 5.44011 30.0972 5.48235C30.1003 5.4922 30.104 5.50122 30.1078 5.51024C30.2231 5.82163 30.3001 6.15189 30.3317 6.49577C29.8696 6.70765 29.4435 6.98664 29.062 7.32666C28.8056 7.55585 28.7837 7.951 29.0122 8.20743C29.1306 8.33942 29.2995 8.41554 29.4774 8.41554C29.6305 8.41554 29.7775 8.35894 29.8921 8.25722C30.3724 7.82812 30.9462 7.53034 31.5623 7.38252C31.7034 7.3493 31.8458 7.32371 31.9884 7.30566C32.0049 7.30336 32.0216 7.30189 32.0382 7.30033C32.0909 7.2936 32.1444 7.28909 32.198 7.28605C32.2168 7.2845 32.2372 7.28302 32.2568 7.28146C32.3231 7.27843 32.3902 7.27547 32.4573 7.27547C32.4595 7.27547 32.4619 7.27547 32.4633 7.27547C33.4949 7.27621 34.4834 7.68875 35.205 8.41554C35.2532 8.46378 35.3007 8.51431 35.3476 8.56632C35.386 8.60996 35.4237 8.65376 35.4599 8.69748C35.4938 8.73973 35.527 8.78198 35.5586 8.82496C35.5609 8.82791 35.5632 8.83021 35.5654 8.83316C35.5949 8.8732 35.6227 8.91306 35.6507 8.95383C35.6552 8.96056 35.6605 8.96737 35.6649 8.97417C35.6898 9.01043 35.7124 9.04661 35.735 9.08352C35.7434 9.09558 35.7508 9.1069 35.7584 9.11978C35.7772 9.15062 35.7954 9.18229 35.8134 9.21477C35.8232 9.2329 35.8345 9.25103 35.8442 9.26916C35.8586 9.29475 35.8714 9.32117 35.885 9.3475C35.8978 9.3717 35.9114 9.39729 35.9235 9.42215C35.9333 9.44249 35.9431 9.46357 35.9529 9.484C35.9664 9.51484 35.9815 9.54585 35.9944 9.57751C36.0018 9.59482 36.0086 9.61221 36.0162 9.62952C36.0305 9.66422 36.0448 9.69884 36.0576 9.73354C36.0637 9.75011 36.0689 9.76676 36.0757 9.78333C36.0885 9.81943 36.1006 9.85486 36.1127 9.89112C36.1179 9.90769 36.1225 9.92434 36.1278 9.94091C36.1391 9.97709 36.1504 10.0133 36.1602 10.0503C36.1655 10.0699 36.17 10.0895 36.1752 10.109C36.1844 10.1422 36.1926 10.1754 36.2002 10.2093C36.2063 10.2365 36.2122 10.2644 36.2175 10.2923C36.2228 10.318 36.2281 10.3436 36.2333 10.3699C36.2401 10.41 36.2461 10.4507 36.2522 10.4914C36.2544 10.5042 36.2567 10.5185 36.2589 10.5321C36.2816 10.6987 36.2929 10.8684 36.2929 11.0411C36.2929 11.1203 36.2898 11.1994 36.2846 11.2794C36.2839 11.2967 36.2823 11.314 36.2815 11.3322C36.2755 11.4076 36.2679 11.4838 36.2574 11.56C36.2551 11.5773 36.2521 11.5946 36.2498 11.6119C36.2408 11.6753 36.2302 11.7378 36.2174 11.8005C36.2137 11.8208 36.2099 11.8412 36.2062 11.8615C36.1903 11.9316 36.1729 12.0017 36.1549 12.0718C36.1481 12.0983 36.1405 12.1247 36.1331 12.1511C36.115 12.2129 36.0961 12.274 36.075 12.3351C36.0666 12.3607 36.0569 12.3863 36.0486 12.412C36.0274 12.4708 36.0048 12.5282 35.9815 12.5854C35.9716 12.6096 35.9619 12.6337 35.9513 12.657C35.9219 12.7256 35.8903 12.795 35.857 12.8629C35.848 12.8809 35.8382 12.899 35.8284 12.9178C35.7953 12.9835 35.7591 13.0498 35.7221 13.1146C35.6286 13.276 35.5261 13.4328 35.4115 13.5836C35.3964 13.601 35.3821 13.6199 35.3693 13.6386C35.254 13.7857 35.1332 13.9237 35.0104 14.0473C34.7856 14.2743 34.4683 14.5066 34.0935 14.7199C33.5325 15.0388 32.9218 15.2741 32.5077 15.4144C32.2718 15.4951 32.0742 15.5539 31.9506 15.5893C31.8835 15.6074 31.8306 15.6226 31.7944 15.6316L31.7462 15.6436C31.4122 15.7251 31.2064 16.0629 31.287 16.3962C31.3549 16.6775 31.6037 16.8727 31.8925 16.8727C31.9422 16.8727 31.992 16.8667 32.0403 16.8553C32.1058 16.8395 32.7053 16.6895 33.4608 16.3923C33.9193 16.2115 34.3393 16.0131 34.7088 15.8034C35.1951 15.5275 35.5827 15.2395 35.8956 14.9243C35.9944 14.8255 36.0909 14.7199 36.1844 14.6106C36.2794 14.6122 36.3752 14.6182 36.471 14.6258C36.4747 14.6273 36.4792 14.628 36.4838 14.628C36.5335 14.6324 36.5682 14.6355 36.5885 14.637C36.5901 14.6379 36.5916 14.6379 36.5923 14.6379C36.5984 14.6379 36.6036 14.6393 36.6059 14.6393H36.6067H36.6074C36.6277 14.6424 36.6482 14.6454 36.6684 14.6484C36.7031 14.6537 36.7386 14.6575 36.7733 14.6635C37.4217 14.7751 38.025 15.0594 38.5218 15.4847C38.5271 15.4891 38.5317 15.4937 38.5369 15.4981C38.5679 15.5245 38.598 15.5524 38.6281 15.5803C38.6387 15.5902 38.65 15.5999 38.6614 15.6098C38.684 15.6316 38.7066 15.655 38.7293 15.6783C38.7459 15.6942 38.7624 15.7101 38.7783 15.7274C38.7911 15.7402 38.8024 15.7538 38.8144 15.7666C38.8393 15.793 38.8642 15.8194 38.8883 15.8465V15.8472C38.9524 15.9196 39.0129 15.9951 39.0708 16.0727C39.0769 16.0817 39.0837 16.09 39.0911 16.0991C39.1123 16.1284 39.1326 16.1594 39.1537 16.1888C39.1636 16.2031 39.1741 16.2183 39.1838 16.2333C39.2012 16.2597 39.2178 16.286 39.2351 16.3132C39.2472 16.3328 39.2592 16.3517 39.2713 16.3704C39.2856 16.3946 39.2984 16.4187 39.3128 16.4421C39.3256 16.4655 39.3399 16.4889 39.3528 16.5123C39.3641 16.5334 39.3739 16.5545 39.3852 16.5756C39.3988 16.6028 39.4138 16.63 39.4275 16.6578C39.4357 16.6752 39.4433 16.6932 39.4516 16.7113C39.4667 16.7429 39.4818 16.7747 39.4954 16.8064C39.5014 16.8206 39.5066 16.835 39.5134 16.8493C39.5277 16.8855 39.5429 16.9217 39.5571 16.9586C39.5609 16.9692 39.5647 16.9812 39.5693 16.9918C39.5836 17.0319 39.5979 17.0717 39.6115 17.1125C39.6146 17.1208 39.6168 17.1291 39.619 17.1381C39.6334 17.1811 39.6469 17.2248 39.659 17.2685C39.6605 17.2753 39.6621 17.2813 39.6635 17.2881C39.6763 17.3341 39.6884 17.3794 39.6989 17.4261C39.7005 17.4322 39.7012 17.4382 39.7027 17.4441C39.7133 17.4909 39.723 17.5384 39.732 17.5852C39.7335 17.5935 39.7343 17.6011 39.7358 17.6085C39.7434 17.6538 39.7516 17.6998 39.7576 17.7459C39.7592 17.7579 39.7599 17.77 39.7622 17.7813C39.7675 17.8235 39.7721 17.8657 39.7765 17.908C39.7781 17.9283 39.7795 17.9487 39.7803 17.969C39.7833 18.0038 39.7863 18.0376 39.7878 18.0715C39.7901 18.1266 39.7915 18.1816 39.7915 18.2375C39.7915 18.3121 39.7886 18.3875 39.784 18.4629C39.7795 18.5375 39.7726 18.6137 39.7636 18.6891C39.7628 18.6922 39.7621 18.6944 39.7621 18.6974C39.7553 18.7547 39.7462 18.812 39.7366 18.8678C39.735 18.8768 39.7328 18.8852 39.7312 18.8934C39.7222 18.9462 39.7116 18.9982 39.6996 19.0502C39.6996 19.0525 39.6987 19.0547 39.698 19.0562C39.548 19.7062 39.2207 20.3034 38.7555 20.7792C38.751 20.7837 38.7472 20.7875 38.7427 20.792C38.7072 20.8283 38.6703 20.8644 38.6327 20.8991C38.6236 20.9074 38.6145 20.9156 38.6047 20.9247C38.5195 21.0017 38.4313 21.0762 38.3386 21.1464C37.9442 21.0506 37.5424 21.0023 37.1404 21.0023C35.977 21.0023 34.8399 21.4043 33.9366 22.1326C33.6697 22.3483 33.6274 22.7419 33.8431 23.0088C33.9622 23.1566 34.1387 23.241 34.3286 23.241C34.4704 23.241 34.6092 23.192 34.72 23.103C35.4122 22.5443 36.2499 22.2487 37.1412 22.2487C37.4361 22.2487 37.7286 22.2819 38.0128 22.3482C38.1214 22.4327 38.2587 22.4809 38.3982 22.4809C38.4155 22.4809 38.4329 22.4801 38.451 22.4787C38.6123 22.5367 38.7654 22.6031 38.9071 22.6763C38.9102 22.6778 38.9132 22.6793 38.9155 22.6809L38.9177 22.6815V22.6823L38.9193 22.6831C39.061 22.7562 39.1967 22.8391 39.328 22.9289C39.34 22.9372 39.3528 22.9448 39.3649 22.953C39.3717 22.9576 39.3777 22.9636 39.3845 22.968C39.8007 23.266 40.1566 23.6437 40.4273 24.0796C40.474 24.155 40.5178 24.2319 40.5592 24.3102C40.5675 24.3253 40.5743 24.3413 40.5819 24.357C40.615 24.4211 40.6467 24.4851 40.6761 24.55C40.6806 24.5613 40.6852 24.5733 40.6897 24.5839C40.7199 24.6556 40.7493 24.7265 40.7756 24.7996C40.7779 24.8056 40.7794 24.8124 40.7817 24.8184C40.8096 24.8961 40.8352 24.9738 40.8578 25.0537C40.8586 25.0583 40.8594 25.0627 40.8609 25.0673C40.8835 25.148 40.9039 25.2295 40.9219 25.3116C40.9235 25.3214 40.9249 25.3305 40.9265 25.3402C40.9423 25.4172 40.9566 25.4956 40.9672 25.5739C40.971 25.6019 40.9733 25.6297 40.9762 25.6584C40.9838 25.7187 40.9913 25.7791 40.9951 25.8402C41.0019 25.93 41.0049 26.0212 41.0049 26.1124C41.0057 26.1791 41.0042 26.2448 41.0011 26.3089Z" fill="#00A9C6" stroke="#00A9C6" stroke-width="0.720008"/>
</svg>
