<svg width="37" height="37" viewBox="0 0 37 37" fill="none" xmlns="http://www.w3.org/2000/svg">
<rect x="1.06731" y="1.06731" width="34.1538" height="34.8654" rx="4.625" fill="#FEF1CF" stroke="#FFB100" stroke-width="2.13462"/>
<path d="M27.3351 24.2096C27.6407 25.0187 27.4448 25.7632 26.9184 26.3521C26.3704 26.9651 25.4623 27.3942 24.443 27.3942H11.8455C10.8262 27.3942 9.91814 26.9651 9.37017 26.3521C8.84371 25.7632 8.64783 25.0187 8.95341 24.2096C9.46154 22.8641 10.2041 21.6476 11.1344 20.6273C12.0645 19.6072 13.1633 18.8039 14.3652 18.2579C15.5667 17.712 16.8505 17.4327 18.1443 17.4327C19.438 17.4327 20.7218 17.712 21.9234 18.2579C23.1252 18.8039 24.224 19.6072 25.1541 20.6273C26.0844 21.6476 26.827 22.8641 27.3351 24.2096Z" fill="#FFB100" stroke="#FFB100" stroke-width="2.13462"/>
<path d="M20.9904 10.3173C20.9904 11.8037 19.6462 13.1635 17.7885 13.1635C15.9308 13.1635 14.5866 11.8037 14.5866 10.3173C14.5866 8.83096 15.9308 7.47118 17.7885 7.47118C19.6462 7.47118 20.9904 8.83096 20.9904 10.3173Z" fill="#FFB100" stroke="#FFB100" stroke-width="2.13462"/>
</svg>
