<svg width="40" height="40" viewBox="0 0 40 40" fill="none" xmlns="http://www.w3.org/2000/svg">
<rect x="1.14819" y="1.14819" width="36.7421" height="37.5075" rx="4.97549" fill="#FEF1CF" stroke="#00A9C6" stroke-width="2.29638"/>
<path d="M29.4067 26.0443C29.7354 26.9147 29.5247 27.7157 28.9583 28.3492C28.3688 29.0086 27.392 29.4702 26.2954 29.4702H12.7432C11.6467 29.4702 10.6698 29.0086 10.0803 28.3492C9.51397 27.7157 9.30324 26.9147 9.63198 26.0443C10.1786 24.5969 10.9775 23.2882 11.9782 22.1906C12.9788 21.0931 14.1609 20.2289 15.4538 19.6415C16.7464 19.0543 18.1275 18.7538 19.5193 18.7538C20.9111 18.7538 22.2922 19.0543 23.5848 19.6415C24.8778 20.2289 26.0598 21.0931 27.0604 22.1906C28.0612 23.2882 28.86 24.5969 29.4067 26.0443Z" stroke="#00A9C6" stroke-width="2.29638"/>
<path d="M22.581 11.0992C22.581 12.6982 21.1349 14.161 19.1365 14.161C17.138 14.161 15.6919 12.6982 15.6919 11.0992C15.6919 9.50015 17.138 8.03732 19.1365 8.03732C21.1349 8.03732 22.581 9.50015 22.581 11.0992Z" fill="#00A9C6" stroke="#00A9C6" stroke-width="2.29638"/>
</svg>
