<svg width="39" height="39" viewBox="0 0 39 39" fill="none" xmlns="http://www.w3.org/2000/svg">
<g clip-path="url(#clip0_375_1886)">
<path d="M26.7949 31.1859H34.6604V28.823L28.3038 20.8228C28.1497 24.4505 27.636 28.0269 26.7949 31.1859Z" fill="#D8E7EA"/>
<path d="M4.33398 28.8358V31.1987H12.2059C11.3712 28.0269 10.8447 24.4633 10.697 20.8484L4.33398 28.8358Z" fill="#D8E7EA"/>
<path d="M19.4991 2.17017C17.5601 2.17017 12.8086 7.93609 12.8086 18.6202C12.8086 23.0121 13.3929 27.436 14.4523 31.1922H24.5587C25.6181 27.436 26.2023 23.0057 26.2023 18.6202C26.1896 7.93609 21.4383 2.17017 19.4991 2.17017Z" fill="#D8E7EA"/>
<path d="M3.5332 28.4243L10.6724 19.1433L11.3863 16.2876L12.1003 11.2901L16.0268 3.08003L20.3104 0.581299L24.9509 5.93572L27.8066 17.7154L36.0167 28.4243V31.9939H3.5332V28.4243Z" fill="#FEF1CF"/>
<path d="M36.7621 27.8394L28.4487 17.3797C28.0996 6.49981 23.1477 -0.132812 19.5534 -0.132812C15.959 -0.132812 11.0072 6.49981 10.6581 17.3797L2.34467 27.8394C2.18947 28.0332 2.10547 28.2724 2.10547 28.5181V32.3646C2.10547 32.9658 2.59026 33.4571 3.19796 33.4571H14.1877V36.101C14.1877 36.7022 14.6725 37.1935 15.2802 37.1935C15.8879 37.1935 16.3727 36.7087 16.3727 36.101V33.4571H18.4543V38.0404C18.4543 38.6416 18.9391 39.1329 19.5468 39.1329C20.1545 39.1329 20.6392 38.6481 20.6392 38.0404V33.4571H22.7337V36.101C22.7337 36.7022 23.2185 37.1935 23.8262 37.1935C24.4274 37.1935 24.9187 36.7087 24.9187 36.101V33.4571H35.9085C36.5097 33.4571 37.0009 32.9722 37.0009 32.3646V28.5181C37.0012 28.2725 36.9173 28.0333 36.7621 27.8394ZM34.8227 31.2656H26.8972C27.7376 28.0721 28.2677 24.4843 28.4164 20.8447L34.8163 28.8995V31.2656H34.8227ZM14.4658 31.2656C13.3991 27.4774 12.8109 23.0233 12.8109 18.608C12.8109 7.85089 17.5947 2.04576 19.5471 2.04576C21.4994 2.04576 26.2832 7.85099 26.2832 18.608C26.2832 23.0297 25.6949 27.4839 24.6283 31.2656H14.4658ZM4.28404 31.2656V28.8866L10.684 20.8447C10.8392 24.4843 11.3628 28.0785 12.2031 31.2656H4.28404Z" fill="#FFB100"/>
<path d="M19.2023 17.2762C16.8622 17.2762 14.9551 15.3692 14.9551 13.029C14.9551 10.6888 16.8622 8.78174 19.2023 8.78174C21.5425 8.78174 23.4496 10.6888 23.4496 13.029C23.4496 15.3692 21.5425 17.2762 19.2023 17.2762ZM19.2023 10.9539C18.0581 10.9539 17.1337 11.8783 17.1337 13.0226C17.1337 14.1669 18.058 15.0913 19.2023 15.0913C20.3465 15.0913 21.271 14.1669 21.271 13.0226C21.271 11.8783 20.3466 10.9539 19.2023 10.9539Z" fill="#FEB101"/>
</g>
<defs>
<clipPath id="clip0_375_1886">
<rect width="39" height="39" fill="white"/>
</clipPath>
</defs>
</svg>
