<svg width="42" height="47" viewBox="0 0 42 47" fill="none" xmlns="http://www.w3.org/2000/svg">
<path d="M2.63672 33.7342L10.8203 23.0956L11.6386 19.8222L12.457 14.0937L16.9579 4.6826L21.8681 1.81836L27.1874 7.95602L30.4608 21.4589L39.8719 33.7342V37.826H2.63672V33.7342Z" fill="#FEF1CF" stroke="#00A9C6" stroke-width="0.5" stroke-linejoin="round"/>
<path d="M40.7262 33.0639L31.1967 21.0742C30.7965 8.60284 25.1203 1 21.0002 1C16.88 1 11.2038 8.60284 10.8037 21.0742L1.27419 33.0639C1.09629 33.2862 1 33.5604 1 33.842V38.2511C1 38.9403 1.55571 39.5034 2.2523 39.5034H14.8497V42.5342C14.8497 43.2233 15.4054 43.7865 16.1019 43.7865C16.7985 43.7865 17.3542 43.2308 17.3542 42.5342V39.5034H19.7403V44.7572C19.7403 45.4464 20.296 46.0095 20.9926 46.0095C21.6892 46.0095 22.2449 45.4538 22.2449 44.7572V39.5034H24.6458V42.5342C24.6458 43.2233 25.2015 43.7865 25.8981 43.7865C26.5872 43.7865 27.1504 43.2308 27.1504 42.5342V39.5034H39.7477C40.4368 39.5034 41 38.9476 41 38.2511V33.842C41.0003 33.5605 40.9041 33.2863 40.7262 33.0639ZM38.5031 36.9914H29.4182C30.3816 33.3308 30.9892 29.2181 31.1596 25.0462L38.4958 34.2792V36.9914H38.5031ZM15.1684 36.9914C13.9457 32.649 13.2715 27.5434 13.2715 22.4822C13.2715 10.1516 18.755 3.49726 20.993 3.49726C23.2309 3.49726 28.7144 10.1517 28.7144 22.4822C28.7144 27.5507 28.0401 32.6564 26.8175 36.9914H15.1684ZM3.49726 36.9914V34.2644L10.8334 25.0462C11.0113 29.2181 11.6114 33.3381 12.5748 36.9914H3.49726Z" fill="#00A9C6" stroke="#00A9C6" stroke-width="0.5" stroke-linejoin="round"/>
<path d="M20.599 20.9558C17.9165 20.9558 15.7305 18.7697 15.7305 16.0872C15.7305 13.4047 17.9165 11.2187 20.599 11.2187C23.2815 11.2187 25.4675 13.4047 25.4675 16.0872C25.4675 18.7697 23.2815 20.9558 20.599 20.9558ZM20.599 13.7086C19.2874 13.7086 18.2277 14.7682 18.2277 16.0799C18.2277 17.3916 19.2873 18.4512 20.599 18.4512C21.9106 18.4512 22.9703 17.3916 22.9703 16.0799C22.9703 14.7682 21.9107 13.7086 20.599 13.7086Z" fill="#00A9C6" stroke="#00A9C6" stroke-width="0.5" stroke-linejoin="round"/>
</svg>
