<svg width="45" height="44" viewBox="0 0 45 44" fill="none" xmlns="http://www.w3.org/2000/svg">
<path d="M1 39.8595V26.6916H8.4427L10.1602 27.8367H12.4503V24.9741L13.5953 22.684L14.7404 16.9589L16.4579 14.0963L18.748 12.3787L21.6106 10.6612V9.51616L22.1831 8.37113V7.2261L20.4655 2.64598L22.7556 1.50095L25.6182 2.64598H26.1907L28.4807 1.50095L30.7708 2.64598L29.0532 7.2261V9.51616L30.1983 11.8062L33.6334 13.5238L36.4959 16.9589L37.641 21.539L38.2135 30.1267V31.8443L40.5036 30.6992H42.2211L42.7936 32.4168L42.2211 34.1343L25.6182 42.722H24.4731L14.7404 39.287L11.8778 38.7144H10.1602L9.01521 39.8595H1Z" fill="#FEF1CF"/>
<path d="M21.7895 1.71632C20.3225 2.44986 20.1257 2.61088 20.1257 3.00448C20.1257 3.07604 20.6624 4.18529 21.3065 5.49134L22.4873 7.87086L22.1474 8.1929C21.5391 8.72963 21.3244 9.42739 21.5749 10.1072C21.6464 10.3219 21.7001 10.5009 21.6822 10.5187C21.6822 10.5187 21.4675 10.5903 21.217 10.6798C20.5551 10.8945 19.3564 11.5206 18.7481 11.95C18.4439 12.1647 17.8535 12.6836 17.4241 13.113C14.8478 15.7251 13.5417 19.7148 13.5417 25.0105V26.0661H14.1858H14.8299L14.8836 24.1518C14.973 20.8598 15.4382 18.6234 16.4938 16.5302C17.6925 14.1685 19.3921 12.612 21.6285 11.8606L22.4157 11.5922L25.7614 11.5743C28.5703 11.5564 29.1965 11.5743 29.6616 11.6817C31.0392 12.0037 32.5242 12.8804 33.6692 14.0254C35.1363 15.5104 36.1919 17.4784 36.7465 19.8042C37.1938 21.6649 37.2475 22.1301 37.2832 26.2092L37.319 30.0379H37.9631H38.6072V26.9607C38.6072 23.7045 38.5356 22.5237 38.2673 20.8956C37.6411 17.1563 35.8698 14.0075 33.2756 12.0753C32.6852 11.6459 31.2182 10.8408 30.6635 10.6619L30.3594 10.5545L30.5204 10.2146C30.6099 10.0178 30.6814 9.73153 30.6814 9.57051C30.6814 9.15902 30.3594 8.51494 29.9658 8.17501L29.6437 7.88875L30.8246 5.50923C31.4686 4.20318 32.0054 3.07604 32.0054 3.02237C32.0054 2.62877 31.7907 2.46775 30.3415 1.73421C29.5185 1.32272 28.8029 1.00068 28.7134 1.00068C28.6239 1.00068 27.9978 1.28693 27.3179 1.62686L26.0655 2.25305L24.8131 1.62686C24.1333 1.28693 23.4892 1.00068 23.4176 1.00068C23.3282 0.982785 22.6125 1.32272 21.7895 1.71632ZM24.67 3.00448C25.3499 3.34441 25.9761 3.63067 26.0655 3.63067C26.155 3.63067 26.7812 3.34441 27.461 3.00448L28.7134 2.37829L29.5543 2.80768C30.0195 3.04026 30.3952 3.23706 30.4131 3.25495C30.431 3.27285 29.9479 4.23897 29.3575 5.43767L28.284 7.5846H26.0476H23.8112L22.7378 5.43767C22.1474 4.25686 21.6822 3.27285 21.6822 3.25495C21.7001 3.23706 23.3461 2.41407 23.3819 2.39618C23.4176 2.39618 23.9723 2.66455 24.67 3.00448ZM29.1965 9.06956C29.3038 9.17691 29.3575 9.33793 29.3575 9.57051C29.3575 9.78521 29.3038 9.96412 29.1965 10.0715C29.0354 10.2325 28.9281 10.2325 26.0655 10.2325C23.2029 10.2325 23.0956 10.2325 22.9346 10.0715C22.8272 9.96412 22.7736 9.8031 22.7736 9.57051C22.7736 9.35582 22.8272 9.17691 22.9346 9.06956C23.0956 8.90854 23.2029 8.90854 26.0655 8.90854C28.9281 8.90854 29.0354 8.92643 29.1965 9.06956Z" fill="#00A9C6" stroke="#00A9C6"/>
<path d="M25.4035 15.5455V16.2433L24.9025 16.5117C24.33 16.8158 24.008 17.1557 23.7038 17.7461C22.9703 19.1774 23.6859 20.3046 26.1191 21.5748C26.4411 21.7538 26.8705 22.04 27.0494 22.2189C27.3715 22.541 27.3894 22.5589 27.3536 22.9703C27.282 23.6681 26.7811 24.1154 26.0654 24.1154C25.3677 24.1154 24.8667 23.7218 24.7594 23.1135L24.7057 22.7914H24.0616H23.3997L23.4533 23.1314C23.5965 23.9365 24.2048 24.7416 24.9741 25.1352L25.3856 25.3499V26.0476V26.7454H26.0475H26.7095V26.0476V25.332L27.121 25.1173C28.0335 24.6521 28.6239 23.7576 28.6417 22.8451C28.6417 21.7895 27.9261 21.0202 25.9939 20.0004C25.6718 19.8215 25.2424 19.5353 25.0635 19.3563C24.7415 19.0343 24.7236 19.0164 24.7594 18.6228C24.8309 17.9251 25.3319 17.4778 26.0475 17.4778C26.7453 17.4778 27.2462 17.8714 27.3536 18.4797L27.4073 18.8017H28.0513H28.7133L28.6596 18.4797C28.5165 17.6209 27.9261 16.8337 27.1389 16.4401L26.7274 16.2254V15.5276V14.8299H26.0654H25.4035V15.5455Z" fill="#00A9C6" stroke="#00A9C6"/>
<path d="M20.7876 20.7876V21.4495H21.4496H22.1115V20.7876V20.1256H21.4496H20.7876V20.7876Z" fill="#00A9C6"/>
<path d="M30.0195 20.7876V21.4495H30.6815H31.3435V20.7876V20.1256H30.6815H30.0195V20.7876Z" fill="#00A9C6"/>
<path d="M1.64404 26.7274V27.3894H5.59798H9.55191V33.3293V39.2691H5.59798H1.64404V39.9311V40.5931H5.68743C9.26565 40.5931 9.7666 40.5752 10.0171 40.4678C10.357 40.3068 10.7685 39.8237 10.8401 39.5196L10.8937 39.287H12.164H13.4522L19.07 41.2729L24.6878 43.2588H25.4571H26.2085L34.6173 38.8934C43.0083 34.5459 43.0262 34.528 43.3303 34.0986C43.7418 33.544 43.9207 32.9535 43.8671 32.4884C43.7597 31.6296 43.2051 30.8245 42.4358 30.413C41.5054 29.93 41.6843 29.8942 36.6033 31.4865L32.0589 32.9178L31.9695 32.4168C31.8084 31.5044 31.2896 30.7887 30.4308 30.3414L30.0014 30.1089L26.6558 30.0731L23.3102 30.0373L19.7856 28.7312L16.2611 27.4431H13.5774H10.8937L10.8401 27.2105C10.7685 26.8885 10.3749 26.4233 10.0171 26.2623C9.7666 26.1549 9.26565 26.137 5.68743 26.137H1.64404V26.7274ZM19.7141 30.0373L23.346 31.3612H26.5485C29.4289 31.3612 29.7689 31.3791 30.0193 31.5044C30.4487 31.7191 30.6276 32.0232 30.6634 32.5599C30.6992 33.1146 30.5382 33.5082 30.1625 33.7765C29.9299 33.9376 29.8225 33.9555 25.7076 33.9912L21.4853 34.027L21.0559 34.2417C20.8233 34.3669 20.5013 34.5816 20.3402 34.7248C20.0003 35.0289 19.5888 35.7982 19.4994 36.2634L19.4457 36.6212H20.1077H20.7517L20.8054 36.2992C20.8591 35.9593 21.0917 35.6014 21.3779 35.4404C21.5032 35.3688 22.6303 35.3331 25.7613 35.2973L29.9657 35.2615L30.3414 35.0647C30.5561 34.9574 30.8244 34.7784 30.9676 34.6711C31.1286 34.5637 33.0429 33.9197 36.2812 32.8999C40.2173 31.6654 41.3981 31.3255 41.6128 31.3612C42.4 31.5044 42.8115 32.4884 42.3642 33.1504C42.2032 33.3829 41.0045 34.0449 34.0627 37.6589L25.9402 41.8812H25.3855C24.8667 41.8812 24.4373 41.7381 19.2131 39.8953L13.5953 37.9094H12.2356H10.8759V33.2935V28.6776H13.4701H16.0643L19.7141 30.0373Z" fill="#00A9C6" stroke="#00A9C6" stroke-linejoin="round"/>
<path d="M4.29224 37.3011V37.9631H4.95421H5.61618V37.3011V36.6391H4.95421H4.29224V37.3011Z" fill="#00A9C6"/>
<path d="M6.92188 37.3011V37.9631H7.58385H8.24582V37.3011V36.6391H7.58385H6.92188V37.3011Z" fill="#00A9C6"/>
<path d="M1 26.6918V40.4322" stroke="#00A9C6" stroke-linecap="round" stroke-linejoin="round"/>
</svg>
