<svg width="39" height="39" viewBox="0 0 39 39" fill="none" xmlns="http://www.w3.org/2000/svg">
<path d="M1.5 34.9375V23.4375H8L9.5 24.4375H11.5V21.9375L12.5 19.9375L13.5 14.9375L15 12.4375L17 10.9375L19.5 9.4375V8.4375L20 7.4375V6.4375L18.5 2.4375L20.5 1.4375L23 2.4375H23.5L25.5 1.4375L27.5 2.4375L26 6.4375V8.4375L27 10.4375L30 11.9375L32.5 14.9375L33.5 18.9375L34 26.4375V27.9375L36 26.9375H37.5L38 28.4375L37.5 29.9375L23 37.4375H22L13.5 34.4375L11 33.9375H9.5L8.5 34.9375H1.5Z" fill="#FEF1CF"/>
<path d="M3.875 32.7031V33.2813H4.45313H5.03125V32.7031V32.125H4.45313H3.875V32.7031Z" fill="#FFB100"/>
<path d="M6.17188 32.7031V33.2813H6.75H7.32813V32.7031V32.125H6.75H6.17188V32.7031Z" fill="#FFB100"/>
<path d="M19.1562 1.62559C17.875 2.26622 17.7031 2.40684 17.7031 2.75059C17.7031 2.81309 18.1719 3.78184 18.7344 4.92246L19.7656 7.00059L19.4688 7.28184C18.9375 7.75059 18.75 8.35997 18.9688 8.95372C19.0313 9.14122 19.0781 9.29747 19.0625 9.31309C19.0625 9.31309 18.875 9.37559 18.6562 9.45371C18.0781 9.64122 17.0312 10.1881 16.5 10.5631C16.2344 10.7506 15.7187 11.2037 15.3437 11.5787C13.0937 13.86 11.9531 17.3443 11.9531 21.9693V22.8912H12.5156H13.0781L13.125 21.2193C13.2031 18.3443 13.6094 16.3912 14.5312 14.5631C15.5781 12.5006 17.0625 11.1412 19.0156 10.485L19.7031 10.2506L22.625 10.235C25.0781 10.2193 25.625 10.235 26.0313 10.3287C27.2344 10.61 28.5312 11.3756 29.5312 12.3756C30.8125 13.6725 31.7344 15.3912 32.2188 17.4225C32.6094 19.0475 32.6562 19.4537 32.6875 23.0162L32.7188 26.36H33.2812H33.8438V23.6725C33.8438 20.8287 33.7812 19.7975 33.5469 18.3756C33 15.11 31.4531 12.36 29.1875 10.6725C28.6719 10.2975 27.3906 9.59434 26.9062 9.43809L26.6406 9.34434L26.7812 9.04747C26.8594 8.87559 26.9219 8.62559 26.9219 8.48497C26.9219 8.12559 26.6406 7.56309 26.2969 7.26621L26.0156 7.01622L27.0469 4.93809C27.6094 3.79747 28.0781 2.81309 28.0781 2.76621C28.0781 2.42246 27.8906 2.28184 26.625 1.64122C25.9062 1.28184 25.2812 1.00059 25.2031 1.00059C25.125 1.00059 24.5781 1.25059 23.9844 1.54747L22.8906 2.09434L21.7969 1.54747C21.2031 1.25059 20.6406 1.00059 20.5781 1.00059C20.5 0.984965 19.875 1.28184 19.1562 1.62559ZM21.6719 2.75059C22.2656 3.04747 22.8125 3.29747 22.8906 3.29747C22.9688 3.29747 23.5156 3.04747 24.1094 2.75059L25.2031 2.20372L25.9375 2.57872C26.3438 2.78184 26.6719 2.95372 26.6875 2.96934C26.7031 2.98497 26.2812 3.82872 25.7656 4.87559L24.8281 6.75059H22.875H20.9219L19.9844 4.87559C19.4688 3.84434 19.0625 2.98497 19.0625 2.96934C19.0781 2.95372 20.5156 2.23497 20.5469 2.21934C20.5781 2.21934 21.0625 2.45372 21.6719 2.75059ZM25.625 8.04746C25.7188 8.14121 25.7656 8.28184 25.7656 8.48497C25.7656 8.67247 25.7188 8.82872 25.625 8.92247C25.4844 9.06309 25.3906 9.06309 22.8906 9.06309C20.3906 9.06309 20.2969 9.06309 20.1562 8.92247C20.0625 8.82872 20.0156 8.68809 20.0156 8.48497C20.0156 8.29747 20.0625 8.14121 20.1562 8.04746C20.2969 7.90684 20.3906 7.90684 22.8906 7.90684C25.3906 7.90684 25.4844 7.92246 25.625 8.04746Z" fill="#FFB100" stroke="#FFB100" stroke-width="0.8"/>
<path d="M22.3125 13.7031V14.3125L21.875 14.5469C21.375 14.8125 21.0937 15.1094 20.8281 15.625C20.1875 16.875 20.8125 17.8594 22.9375 18.9687C23.2187 19.125 23.5937 19.375 23.75 19.5313C24.0312 19.8125 24.0469 19.8281 24.0156 20.1875C23.9531 20.7969 23.5156 21.1875 22.8906 21.1875C22.2812 21.1875 21.8437 20.8438 21.75 20.3125L21.7031 20.0312H21.1406H20.5625L20.6094 20.3281C20.7344 21.0312 21.2656 21.7344 21.9375 22.0781L22.2969 22.2656V22.875V23.4844H22.875H23.4531V22.875V22.25L23.8125 22.0625C24.6094 21.6562 25.125 20.875 25.1406 20.0781C25.1406 19.1563 24.5156 18.4844 22.8281 17.5937C22.5469 17.4375 22.1719 17.1875 22.0156 17.0312C21.7344 16.75 21.7187 16.7344 21.75 16.3906C21.8125 15.7812 22.25 15.3906 22.875 15.3906C23.4844 15.3906 23.9219 15.7344 24.0156 16.2656L24.0625 16.5469H24.625H25.2031L25.1562 16.2656C25.0312 15.5156 24.5156 14.8281 23.8281 14.4844L23.4687 14.2969V13.6875V13.0781H22.8906H22.3125V13.7031Z" fill="#FFB100"/>
<path d="M18.2812 18.2812V18.8594H18.8594H19.4375V18.2812V17.7031H18.8594H18.2812V18.2812Z" fill="#FFB100"/>
<path d="M26.3438 18.2812V18.8594H26.9219H27.5V18.2812V17.7031H26.9219H26.3438V18.2812Z" fill="#FFB100"/>
<path d="M1.5625 23.4688V24.0469H5.01562H8.46875V29.2344V34.4219H5.01562H1.5625V35V35.5781H5.09375C8.21875 35.5781 8.65625 35.5625 8.875 35.4688C9.17188 35.3281 9.53125 34.9063 9.59375 34.6406L9.64062 34.4375H10.75H11.875L16.7812 36.1719L21.6875 37.9062H22.3594H23.0156L30.3594 34.0938C37.6875 30.2969 37.7031 30.2812 37.9688 29.9062C38.3281 29.4219 38.4844 28.9062 38.4375 28.5C38.3438 27.75 37.8594 27.0469 37.1875 26.6875C36.375 26.2656 36.5312 26.2344 32.0938 27.625L28.125 28.875L28.0469 28.4375C27.9062 27.6406 27.4531 27.0156 26.7031 26.625L26.3281 26.4219L23.4062 26.3906L20.4844 26.3594L17.4062 25.2188L14.3281 24.0938H11.9844H9.64062L9.59375 23.8906C9.53125 23.6094 9.1875 23.2031 8.875 23.0625C8.65625 22.9687 8.21875 22.9531 5.09375 22.9531H1.5625V23.4688ZM17.3438 26.3594L20.5156 27.5156H23.3125C25.8281 27.5156 26.125 27.5312 26.3438 27.6406C26.7188 27.8281 26.875 28.0937 26.9062 28.5625C26.9375 29.0469 26.7969 29.3906 26.4688 29.625C26.2656 29.7656 26.1719 29.7812 22.5781 29.8125L18.8906 29.8438L18.5156 30.0313C18.3125 30.1406 18.0312 30.3281 17.8906 30.4531C17.5938 30.7188 17.2344 31.3906 17.1562 31.7969L17.1094 32.1094H17.6875H18.25L18.2969 31.8281C18.3438 31.5313 18.5469 31.2188 18.7969 31.0781C18.9062 31.0156 19.8906 30.9844 22.625 30.9531L26.2969 30.9219L26.625 30.75C26.8125 30.6562 27.0469 30.5 27.1719 30.4062C27.3125 30.3125 28.9844 29.75 31.8125 28.8594C35.25 27.7813 36.2812 27.4844 36.4688 27.5156C37.1562 27.6406 37.5156 28.5 37.125 29.0781C36.9844 29.2812 35.9375 29.8594 29.875 33.0156L22.7812 36.7031H22.2969C21.8438 36.7031 21.4688 36.5781 16.9062 34.9687L12 33.2344H10.8125H9.625V29.2031V25.1719H11.8906H14.1562L17.3438 26.3594Z" fill="#FFB100" stroke="#FFB100" stroke-width="0.8" stroke-linejoin="round"/>
<path d="M1 23.4375V35.4375" stroke="#FFB100" stroke-width="2" stroke-linecap="round" stroke-linejoin="round"/>
</svg>
