<svg width="47" height="47" viewBox="0 0 47 47" fill="none" xmlns="http://www.w3.org/2000/svg">
<path d="M29.6474 28.5358H26.2903V18.4643H29.6474V28.5358ZM29.6474 36.9286V45.3215C29.6474 45.7667 29.4706 46.1936 29.1558 46.5084C28.841 46.8232 28.4141 47.0001 27.9689 47.0001H17.8974C17.4523 47.0001 17.0253 46.8232 16.7105 46.5084C16.3957 46.1936 16.2189 45.7667 16.2189 45.3215V36.9286H19.576V43.6429H26.2903V36.9286H29.6474ZM16.2189 28.5358V18.4643H19.576V28.5358H16.2189ZM29.6474 10.0715H26.2903V3.3572H19.576V10.0715H16.2189V1.67863C16.2189 1.23345 16.3957 0.806496 16.7105 0.491703C17.0253 0.17691 17.4523 6.10352e-05 17.8974 6.10352e-05H27.9689C28.4141 6.10352e-05 28.841 0.17691 29.1558 0.491703C29.4706 0.806496 29.6474 1.23345 29.6474 1.67863V10.0715Z" fill="url(#paint0_linear_38_5032)"/>
<path d="M7.65821 10.0714L3.92171 14.2679L7.65486 18.4643H36.3618V10.0714H7.65821ZM6.90286 6.71429H38.0404C38.4855 6.71429 38.9125 6.89114 39.2273 7.20594C39.5421 7.52073 39.7189 7.94768 39.7189 8.39287V20.1429C39.7189 20.588 39.5421 21.015 39.2273 21.3298C38.9125 21.6446 38.4855 21.8214 38.0404 21.8214H6.90286C6.6656 21.8215 6.43103 21.7713 6.2146 21.674C5.99818 21.5768 5.80482 21.4348 5.64729 21.2574L0.423571 15.3824C0.150783 15.0752 0.00012207 14.6787 0.00012207 14.2679C0.00012207 13.857 0.150783 13.4605 0.423571 13.1533L5.64729 7.27829C5.80482 7.10089 5.99818 6.9589 6.2146 6.86168C6.43103 6.76446 6.6656 6.71423 6.90286 6.71429ZM42.5087 32.7321L38.7789 36.9286H10.072V28.5357H38.7756L42.5087 32.7321ZM39.5309 25.1786H8.39679C7.9516 25.1786 7.52465 25.3554 7.20986 25.6702C6.89506 25.985 6.71821 26.412 6.71821 26.8571V38.6071C6.71821 39.0523 6.89506 39.4793 7.20986 39.7941C7.52465 40.1089 7.9516 40.2857 8.39679 40.2857H39.5343C39.7715 40.2858 40.0061 40.2355 40.2225 40.1383C40.439 40.0411 40.6323 39.8991 40.7899 39.7217L46.0136 33.8467C46.2864 33.5395 46.437 33.143 46.437 32.7321C46.437 32.3213 46.2864 31.9248 46.0136 31.6176L40.7899 25.7426C40.6323 25.5652 40.439 25.4232 40.2225 25.326C40.0061 25.2287 39.7715 25.1785 39.5343 25.1786H39.5309Z" fill="url(#paint1_linear_38_5032)"/>
<defs>
<linearGradient id="paint0_linear_38_5032" x1="22.9332" y1="6.10352e-05" x2="22.9332" y2="47.0001" gradientUnits="userSpaceOnUse">
<stop stop-color="#00E8FE"/>
<stop offset="1" stop-color="#0A98A5"/>
</linearGradient>
<linearGradient id="paint1_linear_38_5032" x1="23.2186" y1="6.71429" x2="23.2186" y2="40.2857" gradientUnits="userSpaceOnUse">
<stop stop-color="#00E8FE"/>
<stop offset="1" stop-color="#0A98A5"/>
</linearGradient>
</defs>
</svg>
