<svg width="47" height="48" viewBox="0 0 47 48" fill="none" xmlns="http://www.w3.org/2000/svg">
<g clip-path="url(#clip0_38_5015)">
<path d="M45.4674 6.70469H20.9457C20.0993 6.70469 19.413 7.39087 19.413 8.23733V12.8352H13.796C14.779 11.5342 15.326 9.93842 15.326 8.23733C15.3261 4.01183 11.8884 0.574219 7.66302 0.574219C3.43761 0.574219 0 4.01183 0 8.23724C0 10.6848 1.13186 12.9143 3.06519 14.3595V46.0417C3.06519 46.888 3.75137 47.5743 4.59783 47.5743H10.7283C11.5747 47.5743 12.2609 46.8881 12.2609 46.0417V37.3569C12.2895 37.3569 33.2068 37.3569 33.2068 37.3569C34.0498 37.3567 34.7392 36.671 34.7392 35.8242V31.2264H45.4674C46.3138 31.2264 47.0001 30.5402 47.0001 29.6937V8.23724C47 7.39087 46.3138 6.70469 45.4674 6.70469ZM9.19566 35.8242V44.509H6.13047V15.7452C7.13822 15.9533 8.21573 15.9474 9.19566 15.7452V35.8242ZM7.66302 12.8351C5.21847 12.8351 3.06519 10.8546 3.06519 8.23724C3.06519 5.70199 5.12777 3.63941 7.66302 3.63941C10.1983 3.63941 12.2608 5.70199 12.2608 8.23724C12.2608 10.8512 10.11 12.8351 7.66302 12.8351ZM12.2608 34.2916V15.9003H19.413V29.6938C19.413 30.2669 19.7383 30.8035 20.2602 31.0647L26.7143 34.2917H12.2608V34.2916ZM31.6739 33.3443L27.4378 31.2264H31.6739V33.3443ZM43.9348 28.1612H33.2065H22.4783V14.3677V9.76988H43.9348V28.1612Z" fill="url(#paint0_linear_38_5015)"/>
<path d="M28.6083 15.9006L25.5428 18.966L28.6083 22.0314L31.6737 18.966L28.6083 15.9006Z" fill="url(#paint1_linear_38_5015)"/>
<path d="M35.0655 16L32.0001 19.0654L35.0655 22.1308L38.1309 19.0654L35.0655 16Z" fill="url(#paint2_linear_38_5015)"/>
</g>
<defs>
<linearGradient id="paint0_linear_38_5015" x1="23.5" y1="0.574219" x2="23.5" y2="47.5743" gradientUnits="userSpaceOnUse">
<stop stop-color="#00E9FF"/>
<stop offset="1" stop-color="#0B95A2"/>
</linearGradient>
<linearGradient id="paint1_linear_38_5015" x1="27.0756" y1="17.4333" x2="30.141" y2="20.4987" gradientUnits="userSpaceOnUse">
<stop stop-color="#00E9FF"/>
<stop offset="1" stop-color="#0B95A2"/>
</linearGradient>
<linearGradient id="paint2_linear_38_5015" x1="33.5328" y1="17.5327" x2="36.5982" y2="20.5981" gradientUnits="userSpaceOnUse">
<stop stop-color="#00E9FF"/>
<stop offset="1" stop-color="#0B95A2"/>
</linearGradient>
<clipPath id="clip0_38_5015">
<rect width="47" height="47" fill="white" transform="translate(0 0.574219)"/>
</clipPath>
</defs>
</svg>
