<svg width="49" height="55" viewBox="0 0 49 55" fill="none" xmlns="http://www.w3.org/2000/svg">
<path d="M2 40L12 27L13 23L14 16L19.5 4.5L25.5 1L32 8.5L36 25L47.5 40V45H2V40Z" fill="#FEF1CF"/>
<path d="M48.5439 39.181L36.8992 24.53C36.4102 9.29039 29.4741 0 24.4395 0C19.4048 0 12.4687 9.29039 11.9797 24.53L0.335046 39.181C0.117658 39.4526 0 39.7876 0 40.1318V45.5195C0 46.3616 0.679057 47.0498 1.53026 47.0498H16.9238V50.7532C16.9238 51.5953 17.6028 52.2835 18.454 52.2835C19.3052 52.2835 19.9843 51.6044 19.9843 50.7532V47.0498H22.9V53.4697C22.9 54.3118 23.579 55 24.4302 55C25.2814 55 25.9605 54.3209 25.9605 53.4697V47.0498H28.8943V50.7532C28.8943 51.5953 29.5733 52.2835 30.4245 52.2835C31.2666 52.2835 31.9548 51.6044 31.9548 50.7532V47.0498H47.3483C48.1904 47.0498 48.8785 46.3706 48.8785 45.5195V40.1318C48.879 39.7877 48.7613 39.4527 48.5439 39.181ZM45.8274 43.9802H34.7261C35.9032 39.507 36.6457 34.4815 36.854 29.3835L45.8184 40.666V43.9802H45.8274ZM17.3133 43.9802C15.8192 38.6739 14.9953 32.4351 14.9953 26.2504C14.9953 11.1829 21.6959 3.05156 24.4307 3.05156C27.1654 3.05156 33.866 11.183 33.866 26.2504C33.866 32.444 33.042 38.683 31.548 43.9802H17.3133ZM3.05156 43.9802V40.6479L12.016 29.3835C12.2334 34.4815 12.9668 39.516 14.1439 43.9802H3.05156Z" fill="#00A9C6"/>
<path d="M23.9492 24.3852C20.6713 24.3852 18 21.7139 18 18.436C18 15.1581 20.6713 12.4868 23.9492 12.4868C27.2271 12.4868 29.8984 15.1581 29.8984 18.436C29.8984 21.7139 27.2271 24.3852 23.9492 24.3852ZM23.9492 15.5294C22.3465 15.5294 21.0516 16.8242 21.0516 18.427C21.0516 20.0298 22.3464 21.3246 23.9492 21.3246C25.5519 21.3246 26.8468 20.0298 26.8468 18.427C26.8468 16.8242 25.552 15.5294 23.9492 15.5294Z" fill="#00A9C6"/>
</svg>
