<svg width="260" height="260" viewBox="0 0 260 260" fill="none" xmlns="http://www.w3.org/2000/svg">
<circle cx="130" cy="130" r="130" fill="#FEF1CF" fill-opacity="0.2"/>
<circle cx="130" cy="92" r="55" fill="#00A9C6" fill-opacity="0.05"/>
<path d="M107 104L117 91L118 87L119 80L124.5 68.5L130.5 65L137 72.5L141 89L152.5 104V109H107V104Z" fill="#FEF1CF"/>
<path d="M153.544 103.181L141.899 88.53C141.41 73.2904 134.474 64 129.439 64C124.405 64 117.469 73.2904 116.98 88.53L105.335 103.181C105.118 103.453 105 103.788 105 104.132V109.52C105 110.362 105.679 111.05 106.53 111.05H121.924V114.753C121.924 115.595 122.603 116.283 123.454 116.283C124.305 116.283 124.984 115.604 124.984 114.753V111.05H127.9V117.47C127.9 118.312 128.579 119 129.43 119C130.281 119 130.96 118.321 130.96 117.47V111.05H133.894V114.753C133.894 115.595 134.573 116.283 135.425 116.283C136.267 116.283 136.955 115.604 136.955 114.753V111.05H152.348C153.19 111.05 153.879 110.371 153.879 109.52V104.132C153.879 103.788 153.761 103.453 153.544 103.181ZM150.827 107.98H139.726C140.903 103.507 141.646 98.4815 141.854 93.3835L150.818 104.666V107.98H150.827ZM122.313 107.98C120.819 102.674 119.995 96.4351 119.995 90.2504C119.995 75.1829 126.696 67.0516 129.431 67.0516C132.165 67.0516 138.866 75.183 138.866 90.2504C138.866 96.444 138.042 102.683 136.548 107.98H122.313ZM108.052 107.98V104.648L117.016 93.3835C117.233 98.4815 117.967 103.516 119.144 107.98H108.052Z" fill="#00A9C6"/>
<path d="M128.949 88.3852C125.671 88.3852 123 85.7139 123 82.436C123 79.1581 125.671 76.4868 128.949 76.4868C132.227 76.4868 134.898 79.1581 134.898 82.436C134.898 85.7139 132.227 88.3852 128.949 88.3852ZM128.949 79.5294C127.346 79.5294 126.052 80.8242 126.052 82.427C126.052 84.0298 127.346 85.3246 128.949 85.3246C130.552 85.3246 131.847 84.0298 131.847 82.427C131.847 80.8242 130.552 79.5294 128.949 79.5294Z" fill="#00A9C6"/>
</svg>
