<svg width="1290" height="805" viewBox="0 0 1290 805" fill="none" xmlns="http://www.w3.org/2000/svg">
<g opacity="0.7">
<path d="M1 0V805" stroke="#003E48" stroke-opacity="0.1"/>
<path d="M113 0V805" stroke="#003E48" stroke-opacity="0.1"/>
<path d="M57 0V805" stroke="#003E48" stroke-opacity="0.1"/>
<path d="M169 0V805" stroke="#003E48" stroke-opacity="0.1"/>
<path d="M225 0V805" stroke="#003E48" stroke-opacity="0.1"/>
<path d="M281 0V805" stroke="#003E48" stroke-opacity="0.1"/>
<path d="M337 0V805" stroke="#003E48" stroke-opacity="0.1"/>
<path d="M393 0V805" stroke="#003E48" stroke-opacity="0.1"/>
<path d="M449 0V805" stroke="#003E48" stroke-opacity="0.1"/>
<path d="M505 0V805" stroke="#003E48" stroke-opacity="0.1"/>
<path d="M561 0V805" stroke="#003E48" stroke-opacity="0.1"/>
<path d="M617 0V805" stroke="#003E48" stroke-opacity="0.1"/>
<path d="M673 0V805" stroke="#003E48" stroke-opacity="0.1"/>
<path d="M729 0V805" stroke="#003E48" stroke-opacity="0.1"/>
<path d="M785 0V805" stroke="#003E48" stroke-opacity="0.1"/>
<path d="M841 0V805" stroke="#003E48" stroke-opacity="0.1"/>
<path d="M897 0V805" stroke="#003E48" stroke-opacity="0.1"/>
<path d="M953 0V805" stroke="#003E48" stroke-opacity="0.1"/>
<path d="M1009 0V805" stroke="#003E48" stroke-opacity="0.1"/>
<path d="M1065 0V805" stroke="#003E48" stroke-opacity="0.1"/>
<path d="M1121 0V805" stroke="#003E48" stroke-opacity="0.1"/>
<path d="M1177 0V805" stroke="#003E48" stroke-opacity="0.1"/>
<path d="M1233 0V805" stroke="#003E48" stroke-opacity="0.1"/>
<path d="M1289 0V805" stroke="#003E48" stroke-opacity="0.1"/>
</g>
</svg>
