<svg width="13" height="13" viewBox="0 0 13 13" fill="none" xmlns="http://www.w3.org/2000/svg">
<path id="Vector" d="M11.9848 0H1.01566C0.45451 0 0 0.45451 0 1.01566V11.9848C0 12.546 0.45451 13.0005 1.01566 13.0005H11.9848C12.546 13.0005 13.0005 12.546 13.0005 11.9848V1.01566C13.0005 0.45451 12.546 0 11.9848 0ZM4.68221 9.21969H3.41517V5.16465H4.68221V9.21969ZM4.01441 4.65682H4.00425C3.54467 4.65682 3.24759 4.34704 3.24759 3.95347C3.24759 3.55228 3.55482 3.25012 4.02203 3.25012C4.48923 3.25012 4.77616 3.55228 4.78632 3.95347C4.78886 4.3445 4.49177 4.65682 4.01441 4.65682ZM9.75037 9.21969H8.31321V7.12234C8.31321 6.57388 8.08976 6.19809 7.59463 6.19809C7.21629 6.19809 7.00554 6.452 6.90905 6.69576C6.87351 6.7821 6.87858 6.90397 6.87858 7.02839V9.21969H5.45411C5.45411 9.21969 5.47189 5.50236 5.45411 5.16465H6.87858V5.80198C6.96238 5.52267 7.41689 5.12656 8.14308 5.12656C9.04449 5.12656 9.75037 5.71057 9.75037 6.96491V9.21969Z" fill="#BBBBBB"/>
</svg>
