<svg width="13" height="11" viewBox="0 0 13 11" fill="none" xmlns="http://www.w3.org/2000/svg">
<path fill-rule="evenodd" clip-rule="evenodd" d="M4.08866 10.4003C8.99439 10.4003 11.6777 6.39843 11.6777 2.92847C11.6777 2.81455 11.6777 2.70149 11.6699 2.58886C12.1919 2.21767 12.6423 1.75679 13.0005 1.22945C12.5143 1.44193 11.9975 1.58127 11.469 1.6427C12.0255 1.3144 12.4421 0.798605 12.6417 0.189986C12.1178 0.495894 11.5451 0.711792 10.9477 0.827633C9.93758 -0.229613 8.24817 -0.280837 7.17367 0.713688C6.4814 1.35494 6.18694 2.31105 6.40209 3.22301C4.25766 3.11678 2.25949 2.11971 0.904835 0.47945C0.196958 1.6794 0.559021 3.21391 1.73102 3.98444C1.30655 3.97228 0.891184 3.85977 0.52002 3.65626V3.68958C0.52067 4.93946 1.41575 6.01567 2.6599 6.26334C2.26729 6.36894 1.85517 6.38425 1.45606 6.30809C1.80512 7.37814 2.80681 8.11104 3.9476 8.13216C3.00311 8.86302 1.83632 9.25987 0.635074 9.2586C0.423166 9.25795 0.211258 9.24578 0 9.22083C1.2201 9.99136 2.6391 10.4003 4.08866 10.3984" fill="#BBBBBB"/>
</svg>
