<svg width="111" height="35" viewBox="0 0 111 35" fill="none" xmlns="http://www.w3.org/2000/svg">
<path d="M39.7558 16.059C39.1159 15.7189 38.6083 15.2726 38.2553 14.6775C37.9022 14.0824 37.7036 13.4236 37.7036 12.6797C37.7036 11.9358 37.8802 11.277 38.2553 10.6819C38.6304 10.0868 39.1159 9.6405 39.7558 9.30045C40.3958 8.9604 41.1019 8.81162 41.9183 8.81162C42.5804 8.81162 43.1982 8.91788 43.7499 9.15167C44.3015 9.38545 44.7429 9.70425 45.118 10.1293L43.9705 11.1495C43.441 10.5756 42.801 10.2781 42.0287 10.2781C41.5432 10.2781 41.1239 10.3844 40.7488 10.5756C40.3737 10.7882 40.0868 11.0645 39.8661 11.4258C39.6455 11.7871 39.5572 12.1909 39.5572 12.6585C39.5572 13.126 39.6675 13.5298 39.8661 13.8912C40.0868 14.2525 40.3737 14.5287 40.7488 14.7413C41.1239 14.9538 41.5432 15.0388 42.0287 15.0388C42.801 15.0388 43.463 14.7413 43.9705 14.1462L45.118 15.1664C44.7429 15.5914 44.3015 15.9314 43.7499 16.1652C43.1982 16.399 42.6024 16.5053 41.9183 16.5053C41.1239 16.5478 40.3958 16.3778 39.7558 16.059ZM47.6557 16.0377C47.0158 15.6977 46.5083 15.2513 46.1331 14.6562C45.758 14.0612 45.5814 13.4023 45.5814 12.6797C45.5814 11.9571 45.758 11.2982 46.1331 10.7032C46.5083 10.1081 46.9937 9.66174 47.6557 9.32169C48.2957 8.98164 49.0239 8.81162 49.8404 8.81162C50.6348 8.81162 51.3629 8.98164 52.0029 9.32169C52.6428 9.66174 53.1503 10.1081 53.5255 10.7032C53.9006 11.2982 54.0771 11.9571 54.0771 12.6797C54.0771 13.4023 53.9006 14.0612 53.5255 14.6562C53.1503 15.2513 52.6428 15.6977 52.0029 16.0377C51.3629 16.3778 50.6348 16.5478 49.8404 16.5478C49.0239 16.5478 48.3177 16.3778 47.6557 16.0377ZM51.0761 14.7625C51.4512 14.55 51.7381 14.2737 51.9367 13.9124C52.1573 13.5511 52.2456 13.1473 52.2456 12.6797C52.2456 12.2121 52.1573 11.8083 51.9367 11.447C51.716 11.0857 51.4292 10.8094 51.0761 10.5969C50.7009 10.3844 50.3037 10.2993 49.8404 10.2993C49.377 10.2993 48.9798 10.4056 48.6046 10.5969C48.2295 10.8094 47.9426 11.0857 47.744 11.447C47.5234 11.8083 47.4351 12.2121 47.4351 12.6797C47.4351 13.1473 47.5454 13.5511 47.744 13.9124C47.9647 14.2737 48.2515 14.55 48.6046 14.7625C48.9798 14.9751 49.377 15.06 49.8404 15.06C50.3037 15.0813 50.7009 14.9751 51.0761 14.7625ZM62.5288 8.96038V16.4203H61.0504L57.1884 11.8933V16.4203H55.4232V8.96038H56.9016L60.7634 13.4873V8.96038H62.5288ZM71.4435 8.96038V16.4203H69.9651L66.1037 11.8933V16.4203H64.3383V8.96038H65.8166L69.6781 13.4873V8.96038H71.4435ZM79.2552 15.0388V16.4203H73.2531V8.96038H79.1005V10.3418H75.0184V11.9571H78.6375V13.2961H75.0402V15.0175H79.2552V15.0388ZM82.146 16.059C81.506 15.7189 80.9983 15.2726 80.6453 14.6775C80.2924 14.0824 80.0935 13.4236 80.0935 12.6797C80.0935 11.9358 80.27 11.277 80.6453 10.6819C81.0206 10.0868 81.506 9.6405 82.146 9.30045C82.7861 8.9604 83.492 8.81162 84.3085 8.81162C84.9703 8.81162 85.5886 8.91788 86.1398 9.15167C86.6916 9.38545 87.1328 9.70425 87.5081 10.1293L86.3604 11.1495C85.831 10.5756 85.1909 10.2781 84.4185 10.2781C83.9332 10.2781 83.5143 10.3844 83.139 10.5756C82.7637 10.7882 82.4772 11.0645 82.256 11.4258C82.0354 11.7871 81.9472 12.1909 81.9472 12.6585C81.9472 13.126 82.0578 13.5298 82.256 13.8912C82.4772 14.2525 82.7637 14.5287 83.139 14.7413C83.5143 14.9538 83.9332 15.0388 84.4185 15.0388C85.1909 15.0388 85.8533 14.7413 86.3604 14.1462L87.5081 15.1664C87.1328 15.5914 86.6916 15.9314 86.1398 16.1652C85.5886 16.399 84.9927 16.5053 84.3085 16.5053C83.492 16.5478 82.7861 16.3778 82.146 16.059ZM90.5754 10.3631H88.1041V8.96038H94.8563V10.3631H92.3849V16.4203H90.5972V10.3631H90.5754ZM101.763 15.0388V16.4203H95.7611V8.96038H101.609V10.3418H97.5265V11.9571H101.146V13.2961H97.5483V15.0175H101.763V15.0388ZM103.22 8.96038H106.75C107.589 8.96038 108.339 9.10916 108.979 9.42796C109.619 9.74676 110.126 10.1718 110.48 10.7244C110.833 11.277 111.009 11.9358 111.009 12.6797C111.009 13.4236 110.833 14.0824 110.48 14.635C110.126 15.1876 109.619 15.6339 108.979 15.9314C108.339 16.2503 107.589 16.399 106.75 16.399H103.22V8.96038ZM106.662 14.9963C107.434 14.9963 108.052 14.7838 108.515 14.38C108.979 13.9549 109.2 13.4023 109.2 12.6797C109.2 11.9571 108.979 11.4045 108.515 10.9794C108.052 10.5544 107.434 10.3631 106.662 10.3631H105.029V14.9963H106.662ZM43.3527 24.4327H39.7117L38.9173 26.1118H38.1891L41.1901 19.7995H41.8742L44.8532 26.1118H44.125L43.3527 24.4327ZM43.0879 23.9014L41.5211 20.5221L39.9544 23.9014H43.0879ZM53.9006 19.8208V26.1118H53.3268L49.1342 21.011V26.1118H48.4501V19.8208H49.0238L53.2386 24.9428V19.8208H53.9006ZM62.6388 24.4327H58.9979L58.2036 26.1118H57.4753L60.4763 19.7995H61.1604L64.1618 26.1118H63.4112L62.6388 24.4327ZM62.3741 23.9014L60.8075 20.5221L59.2407 23.9014H62.3741ZM67.7144 19.8208H68.3986V25.5592H72.0612V26.1118H67.692V19.8208H67.7144ZM77.1368 23.9439V26.1118H76.4527V23.9439L73.8266 19.8208H74.5772L76.8056 23.3488L79.0564 19.7995H79.7406L77.1368 23.9439ZM85.1027 20.3946H82.8078V19.8208H88.1041V20.3946H85.8092V26.133H85.125V20.3946H85.1027ZM91.6784 19.8208H92.3626V26.1118H91.6784V19.8208ZM98.0559 25.7505C97.5265 25.4741 97.1294 25.0916 96.8206 24.6028C96.5335 24.114 96.3788 23.5614 96.3788 22.9663C96.3788 22.3499 96.5335 21.8186 96.8206 21.3298C97.107 20.841 97.5265 20.4584 98.0559 20.1821C98.5854 19.9058 99.1595 19.757 99.8213 19.757C100.307 19.757 100.748 19.842 101.167 19.9908C101.587 20.1396 101.918 20.3734 102.227 20.6709L101.785 21.096C101.278 20.6072 100.638 20.3521 99.8437 20.3521C99.336 20.3521 98.8507 20.4584 98.4313 20.6922C98.0118 20.9259 97.6806 21.2235 97.4382 21.6273C97.1953 22.0311 97.0853 22.4775 97.0853 22.9663C97.0853 23.4551 97.1953 23.9014 97.4382 24.3053C97.6806 24.709 98.0118 25.0066 98.4313 25.2404C98.8507 25.4741 99.336 25.5804 99.8437 25.5804C100.638 25.5804 101.278 25.3254 101.785 24.8153L102.227 25.2404C101.94 25.5379 101.587 25.7717 101.167 25.9205C100.748 26.0692 100.307 26.1543 99.8213 26.1543C99.1595 26.1755 98.5636 26.0267 98.0559 25.7505ZM106.684 25.9417C106.243 25.793 105.889 25.6017 105.647 25.3466L105.912 24.8366C106.155 25.0703 106.464 25.2404 106.861 25.3892C107.258 25.5379 107.655 25.6017 108.074 25.6017C108.67 25.6017 109.111 25.4954 109.398 25.2828C109.685 25.0703 109.84 24.8153 109.84 24.4753C109.84 24.2202 109.751 24.0289 109.597 23.8802C109.443 23.7314 109.244 23.6039 109.001 23.5401C108.78 23.4551 108.45 23.3701 108.03 23.2638C107.545 23.1363 107.148 23.03 106.861 22.9237C106.574 22.8175 106.309 22.6475 106.111 22.4137C105.912 22.1799 105.801 21.8824 105.801 21.4785C105.801 21.1598 105.889 20.8622 106.066 20.6072C106.243 20.3521 106.508 20.1396 106.861 19.9908C107.214 19.842 107.677 19.757 108.207 19.757C108.582 19.757 108.957 19.7995 109.31 19.9058C109.663 20.0121 109.972 20.1396 110.237 20.3096L109.994 20.841C109.729 20.6709 109.42 20.5434 109.111 20.4584C108.803 20.3734 108.494 20.3308 108.185 20.3308C107.611 20.3308 107.169 20.4372 106.882 20.6497C106.596 20.8622 106.441 21.1385 106.441 21.4785C106.441 21.7336 106.529 21.9249 106.684 22.0949C106.838 22.2437 107.037 22.3712 107.28 22.4562C107.522 22.5412 107.854 22.6262 108.251 22.7325C108.736 22.8388 109.111 22.9663 109.42 23.0725C109.707 23.1788 109.972 23.3488 110.171 23.5826C110.369 23.8164 110.48 24.114 110.48 24.4965C110.48 24.8153 110.392 25.1128 110.215 25.3679C110.038 25.6229 109.773 25.8354 109.398 25.9842C109.023 26.133 108.582 26.218 108.03 26.218C107.611 26.1755 107.148 26.0905 106.684 25.9417ZM17.7821 1.7047L29.066 9.90291C30.3803 10.8578 30.9303 12.5504 30.4283 14.0955L26.1182 27.3605C25.6162 28.9055 24.1764 29.9516 22.5518 29.9516H8.60419C6.97962 29.9516 5.5398 28.9055 5.03778 27.3605L0.727739 14.0955C0.225718 12.5504 0.77566 10.8578 2.08997 9.90291L13.3738 1.7047C14.6881 0.749801 16.4678 0.749801 17.7821 1.7047ZM23.6504 20.7223C23.6504 20.5607 23.6264 20.4108 23.5545 20.2838C23.5425 20.2492 23.5305 20.2146 23.5066 20.18L19.4334 12.4839L19.1459 11.9416C18.9422 11.5955 18.5589 11.3532 18.1156 11.3532C17.6843 11.3532 17.313 11.5724 17.1093 11.8955L17.0494 12.0108C17.0374 12.0224 17.0374 12.0339 17.0374 12.0339L16.7978 12.4839L16.0071 13.9839L13.5033 18.6915C12.9283 19.2569 12.1136 19.6031 11.2271 19.5915C9.58583 19.5684 8.22014 18.2762 8.17222 16.6954C8.11232 14.9993 9.52595 13.6031 11.275 13.6031C12.1256 13.6031 12.9043 13.9377 13.4674 14.48L15.1326 12.8878C14.1502 11.9416 12.7965 11.3647 11.311 11.3532C8.42379 11.3416 5.97986 13.557 5.8361 16.3262C5.66838 19.3492 8.1722 21.8531 11.263 21.8415C11.4547 21.8415 11.6464 21.8415 11.8381 21.8184C11.9579 21.8069 12.0897 21.7838 12.2095 21.7608C12.2693 21.7492 12.3293 21.7492 12.3772 21.7376C13.4554 21.53 14.4138 21.0108 15.1565 20.2838C15.3602 20.0877 15.5399 19.8338 15.6717 19.58L16.5462 17.93L18.1156 14.9762L21.446 21.2531V21.2646C21.6497 21.6107 22.033 21.8531 22.4763 21.8531C23.1232 21.8531 23.6504 21.3454 23.6504 20.7223ZM18.1285 18.9C18.4004 18.9 18.6207 18.6796 18.6207 18.4078C18.6207 18.1359 18.4004 17.9156 18.1285 17.9156C17.8567 17.9156 17.6364 18.1359 17.6364 18.4078C17.6364 18.6796 17.8567 18.9 18.1285 18.9ZM39.6293 30.2597H42.4073L42.4018 30.9832H40.5019V31.9332H42.2471V32.6622H40.5019V34.1257H39.6293V30.2597ZM45.084 30.199C45.4707 30.199 45.8223 30.2855 46.1389 30.4586C46.4556 30.6316 46.705 30.87 46.8873 31.1738C47.0695 31.4775 47.1606 31.8153 47.1606 32.1872C47.1606 32.5591 47.0695 32.8978 46.8873 33.2034C46.705 33.509 46.4556 33.7493 46.1389 33.9242C45.8223 34.0991 45.4707 34.1865 45.084 34.1865C44.6974 34.1865 44.3458 34.0991 44.0292 33.9242C43.7125 33.7493 43.4631 33.5099 43.2808 33.2062C43.0986 32.9024 43.0075 32.5628 43.0075 32.1872C43.0075 31.8153 43.0986 31.4775 43.2808 31.1738C43.4631 30.87 43.7116 30.6316 44.0264 30.4586C44.3412 30.2855 44.6938 30.199 45.084 30.199ZM45.0951 30.9611C44.8815 30.9611 44.6827 31.0154 44.4986 31.1241C44.3145 31.2327 44.1691 31.3809 44.0623 31.5687C43.9555 31.7564 43.9021 31.9626 43.9021 32.1872C43.9021 32.4155 43.9564 32.6235 44.0651 32.8113C44.1737 32.9991 44.3191 33.1482 44.5014 33.2586C44.6836 33.3691 44.8815 33.4243 45.0951 33.4243C45.3087 33.4243 45.5047 33.37 45.6833 33.2614C45.8618 33.1528 46.0036 33.0037 46.1085 32.8141C46.2135 32.6244 46.2659 32.4155 46.2659 32.1872C46.2659 31.9626 46.2135 31.7564 46.1085 31.5687C46.0036 31.3809 45.8618 31.2327 45.6833 31.1241C45.5047 31.0154 45.3087 30.9611 45.0951 30.9611ZM50.478 34.1257L49.865 33.0212H48.9758V34.1257H48.1032V30.2597H49.7822C50.2866 30.2597 50.6768 30.3766 50.953 30.6104C51.2291 30.8442 51.3672 31.1747 51.3672 31.6018C51.3672 31.9 51.3056 32.155 51.1822 32.3667C51.0589 32.5784 50.8794 32.7395 50.6437 32.85L51.4666 34.1257H50.478ZM48.9758 32.2922H49.7822C50.0252 32.2922 50.212 32.236 50.3427 32.1237C50.4734 32.0114 50.5388 31.8466 50.5388 31.6294C50.5388 31.4159 50.4734 31.2548 50.3427 31.1462C50.212 31.0375 50.0252 30.9832 49.7822 30.9832H48.9758V32.2922ZM54.1305 30.2597H55.1025L56.3065 32.6346L57.4995 30.2597H58.466V34.1257H57.6817V31.5134L56.5827 33.7336H56.0193L54.9148 31.5134V34.1257H54.1305V30.2597ZM59.6902 30.2597H62.6339V30.9832H60.5628V31.8227H62.424V32.5462H60.5628V33.4023H62.6946V34.1257H59.6902V30.2597ZM66.1225 34.1257L65.5095 33.0212H64.6203V34.1257H63.7477V30.2597H65.4266C65.931 30.2597 66.3213 30.3766 66.5975 30.6104C66.8736 30.8442 67.0117 31.1747 67.0117 31.6018C67.0117 31.9 66.95 32.155 66.8267 32.3667C66.7033 32.5784 66.5238 32.7395 66.2882 32.85L67.1111 34.1257H66.1225ZM64.6203 32.2922H65.4266C65.6696 32.2922 65.8565 32.236 65.9872 32.1237C66.1179 32.0114 66.1832 31.8466 66.1832 31.6294C66.1832 31.4159 66.1179 31.2548 65.9872 31.1462C65.8565 31.0375 65.6696 30.9832 65.4266 30.9832H64.6203V32.2922ZM70.9145 31.4692C70.782 31.3109 70.6264 31.1867 70.4478 31.0964C70.2693 31.0062 70.0898 30.9611 69.9093 30.9611C69.6921 30.9611 69.4933 31.0145 69.3129 31.1213C69.1324 31.2281 68.9907 31.3735 68.8876 31.5576C68.7845 31.7417 68.733 31.9461 68.733 32.1707C68.733 32.3953 68.7845 32.6005 68.8876 32.7865C68.9907 32.9724 69.1324 33.1197 69.3129 33.2283C69.4933 33.3369 69.6921 33.3912 69.9093 33.3912C70.0824 33.3912 70.2582 33.3498 70.4368 33.2669C70.6154 33.1841 70.7746 33.0727 70.9145 32.9328L71.4281 33.4906C71.2219 33.7042 70.9799 33.8735 70.7019 33.9987C70.4239 34.1239 70.145 34.1865 69.8652 34.1865C69.4859 34.1865 69.1416 34.0991 68.8324 33.9242C68.5231 33.7493 68.2801 33.509 68.1034 33.2034C67.9266 32.8978 67.8383 32.5572 67.8383 32.1817C67.8383 31.8098 67.9285 31.4729 68.1089 31.171C68.2893 30.8691 68.5369 30.6316 68.8517 30.4586C69.1665 30.2855 69.5154 30.199 69.8983 30.199C70.1781 30.199 70.4543 30.257 70.7267 30.373C70.9992 30.4889 71.2312 30.6463 71.4226 30.8452L70.9145 31.4692ZM72.3155 30.2597H73.1881V31.8724H74.9388V30.2597H75.8115V34.1257H74.9388V32.6014H73.1881V34.1257H72.3155V30.2597ZM79.8855 34.1257L79.5817 33.3746H77.7923L77.4886 34.1257H76.5883L78.2673 30.2597H79.1675L80.8188 34.1257H79.8855ZM78.0795 32.6732H79.3001L78.6925 31.171L78.0795 32.6732ZM84.2633 30.2597H85.0917V34.1257H84.2964L82.4241 31.6404V34.1257H81.5902V30.2597H82.3855L84.2633 32.7561V30.2597ZM85.9294 30.2597H89.1602V30.9998H87.9783V34.1257H87.1057V30.9998H85.9294V30.2597ZM92.5439 31.3367C92.3451 31.2152 92.1343 31.1185 91.9115 31.0467C91.6888 30.975 91.4982 30.9391 91.3399 30.9391C91.189 30.9391 91.0693 30.9667 90.9809 31.0219C90.8926 31.0771 90.8484 31.1581 90.8484 31.2649C90.8484 31.4011 90.9119 31.5051 91.0389 31.5769C91.1659 31.6487 91.362 31.7233 91.6271 31.8006C91.8922 31.8779 92.1104 31.9553 92.2816 32.0326C92.4528 32.1099 92.5991 32.2259 92.7206 32.3805C92.8421 32.5352 92.9029 32.7395 92.9029 32.9936C92.9029 33.2403 92.8375 33.4529 92.7068 33.6315C92.5761 33.81 92.3966 33.9453 92.1684 34.0374C91.9401 34.1294 91.6805 34.1754 91.3896 34.1754C91.0767 34.1754 90.7692 34.1202 90.4673 34.0098C90.1654 33.8993 89.904 33.7484 89.683 33.5569L90.031 32.8444C90.2261 33.0212 90.4508 33.1629 90.7048 33.2697C90.9589 33.3765 91.1908 33.4299 91.4007 33.4299C91.5811 33.4299 91.7219 33.3967 91.8232 33.3305C91.9244 33.2642 91.975 33.1684 91.975 33.0433C91.975 32.9438 91.941 32.8619 91.8729 32.7975C91.8047 32.7331 91.7182 32.6806 91.6133 32.6401C91.5084 32.5996 91.3638 32.5536 91.1797 32.502C90.9146 32.4284 90.6983 32.3547 90.5308 32.2811C90.3633 32.2075 90.2188 32.0952 90.0973 31.9442C89.9758 31.7933 89.915 31.5926 89.915 31.3422C89.915 31.1103 89.9776 30.9068 90.1028 30.7319C90.228 30.5571 90.4029 30.4226 90.6275 30.3288C90.8521 30.2349 91.1135 30.1879 91.4117 30.1879C91.6768 30.1879 91.9382 30.2266 92.196 30.3039C92.4537 30.3812 92.682 30.4843 92.8808 30.6132L92.5439 31.3367Z" fill="#303F9F"/>
</svg>
