<?xml version="1.0" standalone="no"?>
<!DOCTYPE svg PUBLIC "-//W3C//DTD SVG 20010904//EN"
 "http://www.w3.org/TR/2001/REC-SVG-20010904/DTD/svg10.dtd">
<svg version="1.0" xmlns="http://www.w3.org/2000/svg"
 width="450.000000pt" height="354.000000pt" viewBox="0 0 450.000000 354.000000"
 preserveAspectRatio="xMidYMid meet">

<g transform="translate(0.000000,354.000000) scale(0.100000,-0.100000)"
fill="#000000" stroke="none">
<path d="M2132 2936 c-114 -62 -241 -174 -318 -281 -53 -74 -111 -193 -141
-292 -24 -79 -27 -104 -27 -248 -1 -124 3 -177 18 -235 21 -86 98 -253 148
-322 44 -61 116 -138 129 -138 17 0 172 161 220 230 151 213 220 426 222 680
1 152 -12 244 -54 375 -30 94 -107 256 -124 261 -6 2 -38 -12 -73 -30z"/>
<path d="M3634 2565 c-73 -16 -198 -65 -251 -98 -67 -42 -151 -126 -199 -199
-184 -276 -159 -640 58 -873 238 -255 577 -315 883 -157 106 55 238 191 293
302 59 121 76 194 76 325 0 130 -17 205 -73 320 -117 239 -373 396 -641 394
-47 0 -112 -7 -146 -14z"/>
<path d="M4027 749 c-15 -9 -17 -33 -17 -240 0 -247 6 -281 51 -313 29 -20 82
-21 99 -1 19 23 8 50 -22 53 -54 6 -58 25 -58 269 0 203 -2 223 -18 232 -11 6
-24 6 -35 0z"/>
<path d="M3020 732 c-18 -14 -21 -25 -16 -45 8 -35 49 -46 76 -22 25 23 25 40
0 65 -25 25 -32 25 -60 2z"/>
<path d="M3250 691 c-5 -11 -10 -42 -10 -70 0 -48 -2 -51 -25 -51 -33 0 -51
-33 -29 -54 8 -9 24 -16 34 -16 16 0 18 -12 21 -112 4 -96 8 -119 27 -149 26
-43 65 -62 118 -57 36 3 39 5 39 33 0 27 -4 30 -39 36 -58 9 -66 27 -66 146
l0 103 34 0 c44 0 70 24 56 51 -8 14 -21 19 -50 19 l-40 0 0 58 c0 32 -5 63
-12 70 -18 18 -46 14 -58 -7z"/>
<path d="M1680 581 c-56 -12 -98 -39 -128 -83 -23 -36 -27 -51 -27 -118 0 -67
3 -82 28 -117 65 -94 215 -119 292 -47 46 43 7 76 -53 44 -123 -66 -248 62
-184 190 34 69 125 88 190 40 35 -26 66 -23 70 7 4 25 -47 68 -93 78 -54 12
-60 13 -95 6z"/>
<path d="M2129 580 c-161 -30 -221 -230 -105 -346 68 -69 164 -79 237 -25 35
26 37 26 41 -1 2 -18 10 -23 33 -23 l30 0 3 122 c3 135 -4 160 -61 220 -42 45
-113 66 -178 53z m100 -78 c19 -10 43 -34 53 -53 36 -68 12 -156 -53 -191 -90
-48 -189 15 -189 122 0 107 99 170 189 122z"/>
<path d="M2649 580 c-56 -10 -101 -42 -134 -95 l-30 -48 -4 -196 c-3 -186 -2
-198 17 -221 17 -20 24 -23 39 -14 15 9 18 27 21 118 1 58 5 106 8 106 3 0 17
-9 31 -20 52 -40 130 -46 193 -15 61 31 100 104 100 185 0 133 -109 224 -241
200z m100 -78 c19 -10 43 -34 53 -53 36 -68 12 -156 -53 -191 -90 -48 -189 15
-189 122 0 107 99 170 189 122z"/>
<path d="M3670 580 c-87 -17 -143 -73 -162 -161 -15 -75 2 -131 56 -185 68
-69 159 -79 234 -25 37 26 40 26 44 -1 2 -18 10 -23 33 -23 l30 0 3 110 c2 62
-2 127 -8 148 -28 94 -132 156 -230 137z m121 -96 c60 -57 61 -149 3 -207 -48
-49 -120 -48 -176 2 -27 24 -32 36 -35 87 -3 47 0 66 17 92 41 66 136 79 191
26z"/>
<path d="M3021 566 c-8 -9 -11 -69 -9 -191 3 -157 5 -179 21 -189 12 -8 22 -8
35 0 15 10 17 32 20 189 2 122 -1 182 -9 191 -15 18 -43 18 -58 0z"/>
</g>
</svg>
